<svg xmlns="http://www.w3.org/2000/svg" width="1000" height="266.916">
  <g fill="#bfae62">
    <path d="M217.508 191.038l18.021 49.803s-41.184 25.575-94.149 25.575C48.773 266.416.5 202.331.5 134.58.5 66.62 50.056.577 143.85.577c51.56 0 89.885 23.33 89.885 23.33l-24.528 47.037s-28.204-16.302-62.14-16.302c-52.564 0-85.248 33.95-85.248 79.34 0 42.259 30.089 78.13 83.844 78.13 38.437 0 71.845-21.074 71.845-21.074zM242.85 134.278C242.85 60.16 299.277.5 386.516.5c52.64 0 94.699 22.772 94.699 22.772l-24.266 46.475s-31.066-15.03-67.45-15.03c-56.44 0-85.206 35.816-85.206 80.671 0 43.54 29.644 76.775 83.747 76.775 24.02 0 42.632-9.347 42.632-9.347v-71.222h53.18c1.56 0 2.848 1.153 2.848 2.848v101.61s-35.144 30.205-102.511 30.205c-81.51 0-141.339-54.809-141.339-131.98zM584.512 262.642V53.724h-84.517V3.868h227.911v49.856h-83.092v208.918zM753.546 262.642V3.868h45.26c5.91 0 7.256 3.095 9.819 6.173l131.998 154.663V3.868H999.5v258.774h-45.537c-5.37 0-6.92-2.74-10.491-6.647L811.853 99.306v163.336z"/>
  </g>
</svg>
