<?xml version="1.0" encoding="utf-8"?>
<!-- Generator: Adobe Illustrator 26.0.1, SVG Export Plug-In . SVG Version: 6.00 Build 0)  -->
<svg version="1.1" id="Livello_1" xmlns="http://www.w3.org/2000/svg" xmlns:xlink="http://www.w3.org/1999/xlink" x="0px" y="0px"
	 width="500px" height="258.6px" viewBox="0 0 500 258.6" style="enable-background:new 0 0 500 258.6;" xml:space="preserve">
<g>
	<path d="M137.8,118.1h9c0.8,0,1.6,0,2.1-0.1c0.5-0.1,0.9-0.3,1.3-0.5c0.3-0.3,0.6-0.6,0.8-1.3c0.3-0.5,0.5-1.3,0.8-2.2l3.4-11.5
		H180l3.5,11.4c0.3,0.9,0.5,1.7,0.8,2.3c0.3,0.5,0.6,1,0.9,1.3c0.4,0.4,0.8,0.5,1.3,0.6c0.5,0,1.2,0.1,1.8,0.1h9.7
		c1.9,0,2.8-0.8,2.8-2.3c0-0.5,0-0.8,0-1c0-0.1-0.1-0.5-0.4-1l-21.8-66.1c-0.5-1.4-1-2.5-1.7-2.8c-0.6-0.4-1.7-0.6-3-0.6h-12
		c-1.4,0-2.5,0.3-3.1,0.8c-0.6,0.5-1.2,1.4-1.6,2.8l-22,66.1c-0.3,0.4-0.4,1-0.4,2.1C135,117.4,135.9,118.1,137.8,118.1z
		 M167.4,61.4l8.5,27.9h-16.8L167.4,61.4z"/>
	<path d="M189.9,140.4h-7c-1.8,0-3,0.3-3.6,0.8c-0.6,0.5-0.9,1.6-0.9,3.2v39.2l-20.6-39.3c-0.8-1.7-1.7-2.7-2.5-3.2
		c-0.8-0.4-2.2-0.6-4.1-0.6h-6.5c-1.8,0-3,0.3-3.6,0.8c-0.6,0.5-0.9,1.6-0.9,3.2v66.1c0,1.6,0.3,2.6,0.8,3.2
		c0.5,0.5,1.7,0.8,3.5,0.8h7.1c1.8,0,3-0.3,3.6-0.8s0.9-1.6,0.9-3.2v-39.3l20.6,39.4c0.8,1.7,1.7,2.7,2.5,3.2
		c0.8,0.4,2.2,0.6,4.1,0.6h6.5c1.8,0,3-0.3,3.6-0.8c0.6-0.5,0.9-1.6,0.9-3.2v-66.1c0-1.6-0.3-2.6-0.9-3.2
		C192.9,140.6,191.7,140.4,189.9,140.4z"/>
	<path d="M0,0v114.4l14.9,14.9L0,144.3v114.3h500V0H0z M241.5,107.4l-17.1,17.1c-2.6,2.7-2.6,7,0,9.6l17.1,17.1v91.1H16.2v-90.4
		l18-18c2.6-2.6,2.6-7,0-9.6l-18-17.8V16.2h225.3V107.4z M397.9,209.7L397.9,209.7c-0.1,2.5-2.2,4.5-4.6,4.5h-44.5
		c-2.5,0-4.5-2.1-4.5-4.5V98.5h-33.6c-2.2,0-3.9-1.8-3.9-3.9V84.3c0-1.4,0.6-2.7,1.7-3.6l39-34.3c0.3-0.3,0.5-0.4,0.8-0.5
		c1.6-1,3.4-1.7,5.3-1.7H394c2.2,0,3.9,1.8,3.9,3.9V209.7z M474.7,78.2h-17.2v17.2h-16.8V78.2h-17.2V61.4h17.2V44.2h16.8v17.2h17.2
		V78.2z"/>
	<path d="M69.2,214.3H115c1.6,0,2.6-0.3,3.1-0.9c0.5-0.6,0.8-1.8,0.8-3.7v-6.2c0-1.8-0.3-3.1-0.8-3.6c-0.5-0.6-1.6-0.9-3.1-0.9H85.7
		l30.8-43.3c0.5-0.6,0.8-1.3,0.9-1.7c0.1-0.4,0.3-0.9,0.3-1.4v-8.3c0-1.6-0.3-2.6-0.9-3.2c-0.6-0.5-1.8-0.8-3.6-0.8H68.8
		c-1.6,0-2.6,0.3-3.1,0.9c-0.5,0.6-0.8,1.8-0.8,3.7v6.2c0,1.8,0.3,3.1,0.8,3.7c0.5,0.6,1.6,0.9,3.1,0.9h27.4L65.8,199
		c-0.8,1-1.2,1.9-1.2,3v8.5c0,1.6,0.3,2.6,0.9,3.2C66.2,214.1,67.3,214.3,69.2,214.3z"/>
	<path d="M69.2,118.1h23.9c11.2,0,19-4.8,23.1-14.5c1-2.2,1.7-4.4,2.1-6.7c0.4-2.2,0.5-5.2,0.5-8.5v-14c0-3.9-0.3-7.1-0.5-9.3
		c-0.4-2.3-1-4.4-2.1-6.5c-2.5-4.9-5.7-8.5-10-10.9c-4.1-2.3-9.4-3.5-15.8-3.5H69.2c-1.8,0-3,0.3-3.6,0.8c-0.5,0.4-0.9,1.4-0.9,3
		v66.1c0,1.6,0.3,2.6,0.9,3.2C66.2,117.9,67.3,118.1,69.2,118.1z M81.6,58.8h0.1v-0.1h8.5c4,0,6.9,1.2,8.5,3.5
		c1.7,2.3,2.6,6.1,2.6,11.5v15c0,2.8-0.3,5.2-0.6,7.1c-0.4,1.9-1,3.5-1.8,4.7c-0.9,1.2-1.9,1.9-3.5,2.5c-1.4,0.5-3.2,0.8-5.3,0.8
		h-8.5V58.8z"/>
</g>
</svg>
