<?xml version="1.0" encoding="UTF-8" standalone="no"?>
<svg
   xmlns:dc="http://purl.org/dc/elements/1.1/"
   xmlns:cc="http://creativecommons.org/ns#"
   xmlns:rdf="http://www.w3.org/1999/02/22-rdf-syntax-ns#"
   xmlns:svg="http://www.w3.org/2000/svg"
   xmlns="http://www.w3.org/2000/svg"
   xmlns:sodipodi="http://sodipodi.sourceforge.net/DTD/sodipodi-0.dtd"
   xmlns:inkscape="http://www.inkscape.org/namespaces/inkscape"
   version="1.0"
   width="100"
   height="45"
   viewBox="0 0 80 36"
   preserveAspectRatio="xMidYMid meet"
   id="svg2"
   inkscape:version="0.91 r13725"
   sodipodi:docname="ggggggggggggg.svg">
  <title
     id="title3056">FOX Sports 2 logo</title>
  <defs
     id="defs40">
    <pattern
       y="0"
       x="0"
       height="6"
       width="6"
       patternUnits="userSpaceOnUse"
       id="EMFhbasepattern" />
  </defs>
  <sodipodi:namedview
     pagecolor="#ffffff"
     bordercolor="#666666"
     borderopacity="1"
     objecttolerance="10"
     gridtolerance="10"
     guidetolerance="10"
     inkscape:pageopacity="0"
     inkscape:pageshadow="2"
     inkscape:window-width="1366"
     inkscape:window-height="705"
     id="namedview38"
     showgrid="false"
     inkscape:showpageshadow="false"
     inkscape:zoom="1"
     inkscape:cx="51.873563"
     inkscape:cy="26.129237"
     inkscape:window-x="-8"
     inkscape:window-y="-8"
     inkscape:window-maximized="1"
     inkscape:current-layer="svg2"
     showguides="false">
    <inkscape:grid
       type="xygrid"
       id="grid3354" />
  </sodipodi:namedview>
  <metadata
     id="metadata4">
Created by potrace 1.13, written by Peter Selinger 2001-2015
<rdf:RDF>
  <cc:Work
     rdf:about="">
    <dc:format>image/svg+xml</dc:format>
    <dc:type
       rdf:resource="http://purl.org/dc/dcmitype/StillImage" />
    <dc:title>FOX Sports 2 logo</dc:title>
    <cc:license
       rdf:resource="http://artlibre.org/licence/lal" />
  </cc:Work>
  <cc:License
     rdf:about="http://artlibre.org/licence/lal">
    <cc:permits
       rdf:resource="http://creativecommons.org/ns#Reproduction" />
    <cc:permits
       rdf:resource="http://creativecommons.org/ns#Distribution" />
    <cc:permits
       rdf:resource="http://creativecommons.org/ns#DerivativeWorks" />
    <cc:requires
       rdf:resource="http://creativecommons.org/ns#ShareAlike" />
    <cc:requires
       rdf:resource="http://creativecommons.org/ns#Notice" />
    <cc:requires
       rdf:resource="http://creativecommons.org/ns#Attribution" />
  </cc:License>
</rdf:RDF>
</metadata>
  <path
     inkscape:connector-curvature="0"
     id="path3354"
     d="m 54.656695,7.6731535 c 0,0.03348 0.227378,0.255893 0.504781,0.495047 0.570715,0.497436 1.473406,1.422951 1.887233,1.9490845 1.534799,1.941915 2.553459,4.125358 2.86497,6.141423 0.08186,0.538095 0.09322,2.379546 0.01819,2.946341 -0.234201,1.721906 -0.920888,3.436638 -2.028225,5.07481 -0.625284,0.923131 -1.655305,2.104551 -2.514794,2.893729 -0.216006,0.193713 -0.391089,0.377861 -0.391089,0.408951 0,0.04544 1.166447,0.05261 6.946385,0.05261 7.116915,-0.0048 9.265652,-0.0311 10.031921,-0.13871 0.775365,-0.105227 1.628008,-0.382647 2.444301,-0.793958 1.939544,-0.980529 3.519804,-2.618735 4.433862,-4.586936 0.466133,-1.00923 0.723076,-1.858224 0.875416,-2.910501 0.08641,-0.59071 0.09777,-2.482383 0.02272,-3.089834 C 79.561361,14.625283 79.140709,13.376932 78.46312,12.288785 77.640024,10.971049 76.268959,9.5624535 75.102503,8.8426045 74.393077,8.4025655 73.183416,7.9218705 72.505854,7.8094695 71.800979,7.6898935 70.573131,7.6707605 62.664935,7.6420645 55.57757,7.6181445 54.65669,7.6229345 54.65669,7.6731545 Z M 72.34215,11.427835 c 0.163711,0.07175 0.454756,0.404171 1.089116,1.229252 0.363806,0.478306 0.375178,0.516569 0.325152,0.923131 -0.09777,0.76526 -0.625292,3.902957 -0.677592,4.039273 -0.02273,0.04783 -0.418344,0.425694 -0.884472,0.844182 l -0.843578,0.760508 -2.307903,0 -2.30787,0 -0.259212,0.267853 c -0.291048,0.306115 -0.320605,0.394602 -0.450212,1.179027 -0.0955,0.583536 -0.0955,0.758117 -0.01138,0.829862 0.05003,0.04305 0.511603,0.05979 2.507994,0.07654 l 2.453397,0.01913 0.252393,0.286983 c 0.595734,0.662457 0.625293,0.724635 0.538889,1.243569 -0.03413,0.210452 -0.07276,0.447214 -0.0864,0.521354 l -0.03182,0.1411 -0.659402,0.0311 c -0.363808,0.01674 -2.366991,0.02393 -4.452061,0.01913 -3.001379,-0.0072 -3.808576,-0.02392 -3.872244,-0.06218 -0.111415,-0.06457 -0.111415,-0.167406 -0.0091,-0.877693 0.102321,-0.710254 0.500237,-3.128098 0.693511,-4.192331 l 0.05458,-0.298942 0.331975,-0.334782 c 0.186451,-0.18415 0.572995,-0.547665 0.857218,-0.805951 l 0.518395,-0.473524 2.307903,0 2.307871,0 0.266033,-0.272635 c 0.188724,-0.191324 0.277402,-0.313292 0.306961,-0.432867 0.08414,-0.291769 0.234201,-1.420573 0.234201,-1.721908 0,-0.284559 -0.0021,-0.298909 -0.150069,-0.483057 l -0.1569,-0.19134 -2.489775,-0.01673 c -2.307904,-0.01196 -2.501176,-0.01434 -2.594399,-0.0837 -0.0955,-0.06218 -0.732133,-0.803553 -0.7958,-0.927915 -0.03411,-0.06456 0.06367,-0.892043 0.131882,-1.100106 0.02276,-0.07175 0.06139,-0.155449 0.07959,-0.184149 0.0341,-0.04307 0.738952,-0.05022 3.831314,-0.03826 3.581196,0.01196 3.801751,0.01434 3.951821,0.08609 z"
     style="fill:#003380;fill-opacity:1;fill-rule:nonzero;stroke:none" />
  <g
     transform="matrix(0.00445429,0,0,-0.00438826,-0.96355606,37.945573)"
     id="g6"
     style="fill:#003380;fill-opacity:1;stroke:none">
    <path
       d="m 6470,8564 c -25,-2 -124,-8 -220,-14 C 5405,8498 4529,8332 3771,8081 2443,7641 1417,6964 821,6132 539,5738 362,5305 305,4867 285,4711 285,4379 305,4223 353,3854 479,3506 686,3165 1109,2470 1898,1818 2850,1375 4289,706 6081,414 7880,556 c 2319,182 4288,1063 5256,2350 118,157 213,313 304,499 123,251 194,464 241,726 30,173 38,558 15,739 -95,727 -495,1393 -1198,1996 -1010,865 -2547,1456 -4273,1644 -422,45 -561,52 -1145,55 -311,1 -585,1 -610,-1 z m 368,-186 c 17,-17 16,-177 0,-183 -7,-2 -105,-9 -218,-15 C 5322,8110 4151,7695 3270,6993 3113,6868 2777,6537 2668,6400 2206,5817 1980,5207 1980,4540 c 0,-733 278,-1401 838,-2017 497,-546 1222,-999 2043,-1278 559,-190 1200,-308 1800,-331 116,-5 172,-11 179,-20 6,-7 10,-48 8,-96 l -3,-83 -175,2 c -96,2 -249,7 -340,13 -1858,119 -3505,687 -4630,1600 -148,120 -451,424 -564,565 -360,452 -576,949 -627,1444 -16,153 -6,423 20,576 45,261 108,452 236,710 355,721 1041,1345 2020,1840 865,438 1871,725 2995,854 293,34 574,53 1006,69 22,1 45,-3 52,-10 z m 667,-3 c 747,-30 1615,-169 2313,-371 778,-225 1485,-543 2062,-927 716,-478 1206,-1043 1455,-1680 327,-836 166,-1704 -461,-2492 -113,-141 -436,-465 -584,-585 C 11102,1357 9355,788 7355,714 c -155,-6 -182,-4 -193,9 -9,10 -12,42 -10,99 l 3,83 155,7 c 1165,51 2240,384 3098,958 606,406 1040,882 1317,1444 216,440 308,857 292,1331 -25,750 -323,1402 -917,2009 -535,547 -1182,938 -2005,1211 -546,181 -1087,281 -1710,316 -115,6 -216,16 -222,22 -14,10 -19,168 -6,181 4,4 53,5 108,2 55,-3 163,-8 240,-11 z m 80,-359 c 637,-63 1191,-190 1705,-391 634,-248 1291,-652 1518,-933 458,-570 722,-1213 782,-1907 16,-180 7,-485 -19,-667 -53,-364 -150,-675 -316,-1013 -107,-219 -210,-388 -357,-583 -126,-169 -208,-251 -364,-369 C 9334,1246 7582,865 5905,1146 c -834,140 -1589,430 -2230,857 -259,173 -389,281 -491,407 -426,527 -685,1127 -770,1786 -21,157 -24,511 -6,669 77,683 345,1306 795,1850 120,145 427,371 767,566 758,434 1658,689 2655,753 142,9 817,-3 960,-18 z"
       id="path10"
       inkscape:connector-curvature="0"
       style="fill:#8ba0b2;fill-opacity:1" />
    <path
       d="M 3925,7786 C 3066,7499 2389,7137 1825,6663 1672,6535 1409,6267 1296,6125 1031,5791 860,5454 769,5085 c -25,-101 -59,-310 -59,-361 0,-12 72,-14 537,-12 l 538,3 11,110 c 63,593 306,1146 730,1661 364,443 883,846 1484,1151 80,41 149,79 153,86 12,17 -16,121 -34,124 -8,1 -99,-26 -204,-61 z"
       id="path12"
       inkscape:connector-curvature="0"
       style="fill:#003380;fill-opacity:1" />
    <path
       d="m 710,4417 c 0,-266 102,-643 256,-944 409,-802 1307,-1522 2486,-1993 213,-86 633,-230 667,-230 15,0 23,10 31,42 26,93 35,83 -170,188 -777,401 -1355,909 -1738,1530 -248,401 -413,875 -446,1280 -4,41 -9,101 -12,133 l -6,57 -534,0 -534,0 0,-63 z"
       id="path14"
       inkscape:connector-curvature="0"
       style="fill:#003380;fill-opacity:1" />
    <path
       d="m 9841,7806 c -22,-89 -26,-84 132,-164 585,-295 1092,-677 1441,-1086 204,-239 337,-436 473,-703 180,-351 275,-661 316,-1033 l 12,-105 539,-3 538,-2 -6,67 c -56,554 -303,1063 -752,1545 -530,570 -1273,1036 -2184,1371 -196,72 -456,157 -481,157 -11,0 -20,-14 -28,-44 z"
       id="path16"
       inkscape:connector-curvature="0"
       style="fill:#003380;fill-opacity:1" />
    <path
       d="m 12220,4471 c 0,-52 -26,-290 -41,-381 -179,-1061 -989,-2030 -2206,-2639 -132,-66 -143,-73 -143,-99 0,-48 20,-102 37,-102 25,0 229,65 423,135 1170,423 2067,1051 2569,1800 231,345 362,678 416,1060 8,55 15,130 15,168 l 0,67 -535,0 c -329,0 -535,-4 -535,-9 z"
       id="path18"
       inkscape:connector-curvature="0"
       style="fill:#003380;fill-opacity:1" />
    <path
       d="m 3412,3427 -82,-82 0,-205 0,-206 68,-67 68,-67 306,0 c 265,0 309,-2 322,-16 20,-19 23,-153 4,-172 -9,-9 -100,-12 -347,-12 l -336,-1 -42,-40 -43,-40 0,-89 0,-90 478,0 477,0 83,83 82,82 0,205 0,206 -73,72 -72,72 -306,0 c -224,0 -308,3 -317,12 -16,16 -16,150 0,166 9,9 98,12 338,12 l 326,0 32,33 c 32,32 32,34 32,130 l 0,97 -458,0 -457,0 -83,-83 z"
       id="path26"
       inkscape:connector-curvature="0"
       style="fill:#003380;fill-opacity:1" />
    <path
       d="m 4630,2925 0,-585 165,0 165,0 2,183 3,182 310,3 310,2 87,87 88,88 0,225 0,225 -87,87 -88,88 -477,0 -478,0 0,-585 z m 765,300 c 23,-22 25,-31 25,-126 0,-92 -2,-105 -22,-126 -21,-23 -26,-23 -218,-23 -139,0 -199,3 -208,12 -13,13 -18,269 -5,281 3,4 96,7 205,7 198,0 199,0 223,-25 z"
       id="path28"
       inkscape:connector-curvature="0"
       style="fill:#003380;fill-opacity:1" />
    <path
       d="m 5996,3416 -86,-94 0,-404 0,-403 88,-88 87,-87 400,0 400,0 87,87 88,88 0,410 0,410 -88,88 -87,87 -401,0 -402,0 -86,-94 z m 700,-210 34,-34 0,-238 0,-238 -32,-33 -32,-33 -174,0 -174,0 -34,34 -34,34 0,238 0,238 32,33 32,33 174,0 174,0 34,-34 z"
       id="path30"
       inkscape:connector-curvature="0"
       style="fill:#003380;fill-opacity:1" />
    <path
       d="m 7250,2925 0,-585 170,0 170,0 2,208 3,207 146,3 c 109,2 149,-1 156,-10 6,-7 42,-101 80,-208 l 70,-195 187,-3 c 182,-2 186,-2 186,18 0,12 -40,117 -90,233 -49,117 -90,217 -90,223 0,5 32,41 70,79 l 70,69 0,191 0,190 -83,83 -82,82 -483,0 -482,0 0,-585 z m 765,300 c 22,-21 25,-33 25,-91 0,-56 -4,-72 -22,-91 -21,-22 -26,-23 -213,-23 -135,0 -195,4 -203,12 -13,13 -17,199 -5,211 3,4 94,7 200,7 193,0 194,0 218,-25 z"
       id="path32"
       inkscape:connector-curvature="0"
       style="fill:#003380;fill-opacity:1" />
    <path
       d="m 8470,3365 0,-145 173,0 c 121,0 177,-4 185,-12 9,-9 12,-120 12,-440 l 0,-428 165,0 165,0 2,438 3,437 183,3 182,2 0,145 0,145 -535,0 -535,0 0,-145 z"
       id="path34"
       inkscape:connector-curvature="0"
       style="fill:#003380;fill-opacity:1" />
    <path
       d="m 9707,3432 -77,-77 0,-210 0,-211 68,-67 68,-67 306,0 c 265,0 309,-2 322,-16 20,-19 23,-153 4,-172 -9,-9 -101,-12 -353,-12 l -341,0 -37,-38 -37,-38 0,-92 0,-92 478,0 477,0 78,78 77,77 0,215 0,216 -68,67 -68,67 -305,0 c -224,0 -308,3 -317,12 -7,7 -12,41 -12,83 0,42 5,76 12,83 9,9 98,12 338,12 l 326,0 32,33 c 32,32 32,34 32,130 l 0,97 -463,0 -462,0 -78,-78 z"
       id="path36"
       inkscape:connector-curvature="0"
       style="fill:#003380;fill-opacity:1" />
  </g>
  <path
     inkscape:connector-curvature="0"
     d="m 46.651897,21.646876 c -1.479435,0 -2.98554,0 -4.447192,0 -0.04088,0 -0.11558,-0.176076 -0.136919,-0.212687 -0.611689,-1.082597 -1.223378,-2.170424 -1.83151,-3.251277 -0.65081,1.150584 -1.283835,2.320348 -1.932867,3.47268 -1.456317,0.0035 -2.900188,-0.007 -4.344057,-0.0035 0.16359,-0.299851 0.337852,-0.592728 0.51211,-0.887348 1.214488,-2.057108 2.411192,-4.142111 3.627459,-6.200964 -1.292727,-2.214007 -2.605012,-4.410581 -3.904852,-6.6193595 -0.0034,0 -0.01244,-0.01395 -0.0034,-0.01221 1.490103,0 2.978428,0 4.468531,0 0.549452,0.979742 1.084678,1.971687 1.625241,2.9584025 0.561901,-0.9779975 1.104243,-1.9751735 1.660807,-2.9584025 1.440314,0 2.87885,0 4.319164,0 0.0034,0.01744 -0.0089,0.03661 -0.01778,0.05055 -1.260719,2.1721675 -2.551668,4.3513075 -3.810608,6.5269635 1.399416,2.381366 2.825502,4.760988 4.216029,7.137124 z"
     style="fill:#003380;fill-opacity:1"
     id="path1371_1_" />
  <path
     inkscape:connector-curvature="0"
     d="m 35.854877,13.254567 c 0.113801,0.45326 0.179593,0.951846 0.179593,1.476584 0,1.63697 -0.483661,2.850317 -1.155806,3.837033 -0.113803,0.167358 -0.229383,0.327744 -0.353856,0.481154 -0.364523,0.453263 -0.805508,0.866426 -1.298059,1.209859 -0.330741,0.230117 -0.675705,0.439315 -1.058011,0.615389 -0.761053,0.350406 -1.680365,0.624106 -2.740153,0.624106 -1.657249,0 -2.880625,-0.4951 -3.871064,-1.174992 -0.99044,-0.681636 -1.762163,-1.58293 -2.286721,-2.719568 -0.352076,-0.761828 -0.583239,-1.640458 -0.60991,-2.710852 -0.01245,-0.529969 0.05512,-1.052963 0.152922,-1.506223 0.248944,-1.143613 0.737937,-2.039676 1.356738,-2.811962 0.618803,-0.7705455 1.402975,-1.3737315 2.350736,-1.8287355 0.371636,-0.177819 0.787727,-0.329487 1.241159,-0.439315 0.453432,-0.109829 0.954876,-0.184792 1.497216,-0.184792 0.0034,0 0.0053,0 0.0089,0 0.529892,-0.0244 1.091793,0.05927 1.532779,0.155155 0.458768,0.09937 0.883749,0.251037 1.262497,0.418396 1.173588,0.519506 2.048445,1.297024 2.752599,2.2680495 0.464101,0.636308 0.812621,1.399879 1.038449,2.290714 z M 30.52038,17.79764 c 0.04267,-0.16736 0.03023,-0.381784 0.03023,-0.603187 0,-1.689269 0,-3.343674 0,-5.038174 0,-0.216172 -0.02489,-0.38353 -0.08891,-0.540428 -0.05868,-0.142952 -0.149369,-0.2737 -0.256058,-0.38004 -0.208045,-0.207456 -0.521003,-0.39399 -0.913977,-0.364354 -0.190264,0.01395 -0.348519,0.07322 -0.487217,0.158642 -0.257834,0.160385 -0.453432,0.406192 -0.533451,0.73219 -0.04088,0.165616 -0.03912,0.376555 -0.03912,0.59447 0,1.666608 0,3.355878 0,5.038175 0,0.108086 -0.0053,0.212684 0.0089,0.30508 0.03734,0.264983 0.158257,0.477666 0.316513,0.636308 0.20449,0.20397 0.521003,0.374814 0.92998,0.33123 0.528117,-0.05578 0.915756,-0.399219 1.033114,-0.869912 z"
     style="fill:#003380;fill-opacity:1"
     id="path1373_1_" />
  <path
     inkscape:connector-curvature="0"
     d="m 22.842261,11.67338 c -1.575452,0 -3.149129,0 -4.724585,0 -0.01956,0.575295 -0.0034,1.211603 -0.0089,1.790383 1.276722,0.01047 2.573005,0.0019 3.858618,0.0035 0,1.2517 0,2.501657 0,3.753355 -1.294504,0.0035 -2.599677,-0.0054 -3.887068,0.0035 0.0017,1.488788 0.0089,2.949684 0.0089,4.438474 0,0.0054 -0.0017,0.007 -0.0034,0.0087 -1.312285,0 -2.62635,0 -3.938637,0 -0.0071,0.0019 -0.0071,-0.0035 -0.01244,-0.0035 -0.0089,-4.570967 -0.0089,-9.171571 -0.0018,-13.7442795 0,-0.0053 0,-0.01221 0.0034,-0.01221 2.813057,0 5.626116,0 8.437396,0 0.0053,0 0.0071,0 0.0089,0.0035 0.0889,1.251698 0.17426,2.5051405 0.259612,3.7585825 z"
     style="fill:#003380;fill-opacity:1"
     id="path1377_1_" />
</svg>
