<svg xmlns="http://www.w3.org/2000/svg" width="2000" height="2000" version="1.2" viewBox="0 0 2000 2000"><title>Globo_logo_1975 (1)</title><defs><radialGradient id="g1" cx="0" cy="0" r="1" gradientTransform="matrix(1575.144,1499.42,-1499.42,1575.144,10.864,987.952)" gradientUnits="userSpaceOnUse"><stop offset="0" stop-color="#fff"/><stop offset=".524" stop-color="#bedef0"/><stop offset=".708" stop-color="#3296e6"/><stop offset=".878" stop-color="#2882c3"/><stop offset="1" stop-color="#1e6ebe"/></radialGradient><radialGradient id="g2" cx="0" cy="0" r="1" gradientTransform="matrix(-1664.131,442.318,-442.318,-1664.131,1767.061,971.448)" gradientUnits="userSpaceOnUse"><stop offset="0" stop-color="#fff"/><stop offset=".524" stop-color="#bedef0"/><stop offset=".708" stop-color="#3296e6"/><stop offset=".878" stop-color="#2882c3"/><stop offset="1" stop-color="#1e6ebe"/></radialGradient><radialGradient id="g3" cx="0" cy="0" r="1" gradientTransform="matrix(803.553,765.876,-765.876,803.553,542.987,999.595)" gradientUnits="userSpaceOnUse"><stop offset="0" stop-color="#fff"/><stop offset=".504" stop-color="#bedef0"/><stop offset=".688" stop-color="#3296e6"/><stop offset=".839" stop-color="#2882c3"/><stop offset="1" stop-color="#1e6ebe"/></radialGradient></defs><style>.s0{fill:url(#g1)}.s1{fill:url(#g2)}.s2{fill:url(#g3)}</style><g id="layer1"><g id="g4008"><path id="path2996" fill-rule="evenodd" d="m999.5 2000c-553 0-1000-447-1000-1000 0-553 447-1000 1000-1000 553 0 1000 447 1000 1000 0 553-447 1000-1000 1000z" class="s0"/><path id="path13370-4-1" fill-rule="evenodd" d="m1013.2 425c193.5 0 631.6 14.2 694.4 61.8 59.6 45.2 73.1 340.9 73.1 523 0 178.6-1.2 425.1-58.6 478-58.3 53.7-500.9 87.4-708.9 87.4-186 0-662.5-17.7-730.8-80.6-67.3-62-63.4-281.7-63.4-491.2 0-207.7 5.9-455.1 67.1-511.4 62.1-57.3 511-67 727.1-67z" class="s1"/><path id="path3768" fill-rule="evenodd" d="m1000.2 1444.2c-252.9 0-457.2-198.7-457.2-444.6 0-245.9 204.3-444.6 457.2-444.6 252.8 0 457.1 198.7 457.1 444.6 0 245.9-204.3 444.6-457.1 444.6z" class="s2"/></g></g></svg>