<svg xmlns="http://www.w3.org/2000/svg" xmlns:svg="http://www.w3.org/2000/svg" id="Calque_1" width="571.033" height="432.133" x="0" y="0" enable-background="new 0 0 116 90" version="1.1" viewBox="0 0 571.033 432.133" xml:space="preserve"><metadata id="metadata15"/><path style="fill:#000;fill-opacity:1;stroke:none;stroke-width:10.03269482" id="path4" d="M 72.02223,0 0,432.13333 h 149.18889 l 18.84429,-117.53416 117.2498,117.00545 118.55928,-117.00545 18.00218,117.53416 H 571.03332 L 500.66811,0 286.76551,213.63119 Z"/><path style="fill:#e22122;stroke-width:5.15038157" id="path6" d="m 283.52661,275.39661 c -31.72257,0 -57.43565,-24.83013 -57.43565,-55.45228 0,-30.64241 25.71832,-55.47254 57.43565,-55.47254 31.70688,0 57.43043,24.83519 57.43043,55.47255 0,30.62214 -25.71308,55.45227 -57.43043,55.45227 m 3.2822,-187.33577 C 306.94165,54.52495 328.2366,21.16642 343.95132,0 h -93.24657 c -45.40621,61.59393 -87.80244,135.41546 -99.84758,185.47099 -3.08851,10.9962 -4.74267,22.53461 -4.74267,34.46322 0,72.85365 61.52922,131.89869 137.41211,131.89869 75.88291,0 137.41213,-59.04504 137.41213,-131.8987 0.0111,-71.79457 -59.75986,-130.19607 -134.12993,-131.87336"/></svg>