<svg xmlns="http://www.w3.org/2000/svg" xmlns:xlink="http://www.w3.org/1999/xlink" id="레이어_1" x="0" y="0" version="1.1" viewBox="0 0 928 928" xml:space="preserve" style="enable-background:new 0 0 928 928"><path d="M829,182c1.2,1.4,1.2,1.4,2.6,3.3c0.5,0.7,1,1.4,1.6,2.2c0.6,0.8,1.1,1.6,1.7,2.4c0.6,0.8,1.2,1.6,1.8,2.5	C862.9,229.5,884,270.6,898,314c0.5,1.5,0.5,1.5,1,3.1c8.4,25.8,14.1,52,18,78.9c0.2,1.7,0.2,1.7,0.5,3.4	c5.5,38.3,5.3,80.4-0.5,118.6c-0.2,1.4-0.4,2.8-0.6,4.2c-4.3,28.6-10.9,56.4-20.4,83.8c-0.4,1.1-0.7,2.2-1.1,3.3	c-17.8,51.2-45.2,98.2-79.9,139.7c-0.4,0.5-0.9,1-1.3,1.6c-11.9,14.2-24.3,28.3-38.3,40.4c-2.3,2-4.6,4.2-6.8,6.3	c-6.6,6.2-13.4,11.9-20.6,17.3c-2,1.5-4,3.1-5.9,4.6c-14.6,11.4-29.9,21.6-46,30.8c-0.9,0.5-0.9,0.5-1.9,1.1c-4,2.3-8,4.5-12,6.7	c-1.4,0.8-2.8,1.5-4.2,2.3C627.4,888.3,560.3,911.8,502,911c-0.9-2.7-1.1-4.2-1.1-7c0-0.8,0-1.5,0-2.3c0-0.8,0-1.6,0-2.4	c0-0.8,0-1.6,0-2.4c0-2,0-3.9,0-5.9c6-1,12-1.9,18.1-2.6c14.8-1.8,29.4-4.3,43.9-7.4c1-0.2,1.9-0.4,2.9-0.6	c27.8-6.1,57.1-15.2,82.5-28.1c3.5-1.7,7-3.4,10.5-5c7.2-3.4,14.4-6.7,21.1-11c2.9-1.8,5.8-3.4,8.8-5c6.6-3.7,12.9-7.6,19.1-11.9	c5-3.4,5-3.4,7.2-3.4c0-0.7,0-1.3,0-2c1,0,2,0,3,0c0-0.7,0-1.3,0-2c1.7-1.3,1.7-1.3,3.9-2.6c0.7-0.4,1.4-0.9,2.2-1.4	c1.9-1,1.9-1,3.9-1c0-0.7,0-1.3,0-2c1.7-1.5,1.7-1.5,3.9-3.1c0.7-0.5,1.4-1.1,2.2-1.6c1.9-1.2,1.9-1.2,3.9-1.2c0-0.7,0-1.3,0-2	c1.7-0.7,3.3-1.3,5-2c0-0.7,0-1.3,0-2c1.9-1.7,1.9-1.7,4.4-3.6c0.8-0.6,1.6-1.3,2.5-1.9c2.2-1.5,2.2-1.5,4.2-1.5c0-0.7,0-1.3,0-2	c1.6-1.7,1.6-1.7,3.8-3.6c1.1-0.9,1.1-0.9,2.1-1.9c2-1.6,2-1.6,5-2.6c0-0.7,0-1.3,0-2c0.7,0,1.3,0,2,0c0-0.7,0-1.3,0-2	c1.4-1.3,1.4-1.3,3.2-2.8c4.2-3.5,8-7.2,11.5-11.5c0.8-0.9,1.5-1.8,2.3-2.7c0.7,0,1.3,0,2,0c0-0.7,0-1.3,0-2c0.7,0,1.3,0,2,0	c0.3-0.6,0.5-1.2,0.8-1.8c1.2-2.3,2.5-4,4.2-6c0.5-0.6,1-1.2,1.6-1.9c1.4-1.4,1.4-1.4,3.4-1.4c0.3-0.6,0.6-1.2,0.9-1.8	c1.1-2.2,1.1-2.2,3.1-5.2c0.7,0,1.3,0,2,0c0.3-1.3,0.7-2.6,1-4c0.7,0,1.3,0,2,0c0.7-1.7,1.3-3.3,2-5c0.7,0,1.3,0,2,0	c0.2-0.5,0.5-1.1,0.8-1.6c1.6-3,3.3-5.7,5.2-8.4c0.7,0,1.3,0,2,0c0.3-0.7,0.5-1.4,0.8-2.2c1.2-2.8,2.5-5.3,4.2-7.8c0.7,0,1.3,0,2,0	c0-1,0-2,0-3c0.7,0,1.3,0,2,0c0.4-1,0.4-1,0.7-2.1c1.5-3.4,3.5-6.2,5.6-9.2c3.4-4.7,6.2-9.4,8.6-14.7c1.8-3.2,3.6-6.3,5.5-9.4	c5.1-8.5,9.3-17.3,13.5-26.3c0.9-1.9,1.8-3.9,2.7-5.8c6.3-13.4,11.5-27.2,16.2-41.3c0.3-0.8,0.5-1.5,0.8-2.3	c14.7-44.3,21.6-90.1,21.6-136.7c0-1,0-2,0-3.1c0-17.9-1-35.3-3.3-53c-0.2-1.7-0.2-1.7-0.4-3.5c-4-31.4-12-61.6-22.2-91.5	c-0.4-1-0.7-2.1-1.1-3.2c-2.4-6.8-5.2-13.3-8.2-19.8c-0.7-1.6-1.5-3.2-2.2-4.9c-8-18-8-18-17.5-35.1c-1.3-2-2.4-4.1-3.6-6.2	c-2.3-4.2-4.7-8.3-7.2-12.4c-0.4-0.6-0.7-1.2-1.1-1.9c-1.9-3.2-3.9-6.3-6.2-9.3C828,208,828,208,828,206c-0.9,0.7-1.7,1.4-2.6,2.1	c-8.1,6.4-16.2,12.7-24.4,18.9c0.6,3.2,1.8,5.5,3.5,8.3c0.5,0.9,1,1.7,1.6,2.6c0.6,0.9,1.1,1.8,1.7,2.8	c33.9,56.7,56.2,123.1,56.5,189.8c0,1.7,0,1.7,0,3.5c0,3.7,0,7.4,0,11.1c0,1.3,0,2.5,0,3.8c0,18-0.4,35.4-3.3,53.2	c-0.3,2-0.5,3.9-0.8,5.9c-9.8,67.6-39.4,129.9-80.2,184.1c-4.3-0.5-6.8-1.2-10-4c-3.6-3-7.3-5.6-11.3-8.1	c-13.3-8.4-26.1-17.6-38.7-26.9c-3.1,1.4-4.9,2.8-7.1,5.4c-6.5,7.7-13.1,15.3-20.8,21.8c-2.6,2.2-5.1,4.6-7.6,6.9	c-48.9,45.2-114.3,71.6-179.8,79.6c-1,0.1-2,0.3-3.1,0.4c-9.4,1.1-18.1,0.9-27.8,0.9c0,17.8,0,35.6,0,54	c28.8-2.2,56.7-4.9,84.8-11.9c0.8-0.2,1.7-0.4,2.6-0.6c10.7-2.7,21.2-5.7,31.6-9.4c0.6-0.2,1.3-0.5,1.9-0.7	c10.3-3.7,20.4-7.9,30.4-12.5c0.7-0.3,1.4-0.6,2.2-1c10.9-5,21.5-10.4,31.7-16.7c8.3-5.1,8.3-5.1,10.8-5.1c0-0.7,0-1.3,0-2	c2-0.7,4-1.3,6-2c0-0.7,0-1.3,0-2c3.9-3,8.3-5.4,13-7c0-0.7,0-1.3,0-2c1.3-0.9,2.7-1.8,4.1-2.7c3.1-2.1,6-4.5,9-6.9	c2-1.4,2-1.4,4-1.4c0.3-1,0.7-2,1-3c1.7-1.5,3.5-3,5.2-4.4c1-0.8,1.9-1.5,2.9-2.3c0.9-0.7,1.9-1.5,2.9-2.3	c4.6-3.6,8.7-7.4,12.4-11.9c2.4-2.9,5.1-5.3,8-7.7c1.6-1.4,3.1-2.9,4.6-4.4c4.5,1.5,8.5,3.8,12,7c0,0.7,0,1.3,0,2	c1.7,0.7,3.3,1.3,5,2c-1.6,3.9-4.3,6.6-7.3,9.5c-0.5,0.5-1.1,1.1-1.6,1.6c-1.1,1.1-2.2,2.2-3.4,3.3c-1.7,1.7-3.3,3.3-5,5	c-6.6,6.6-13.4,12.7-20.8,18.5c-1,0.9-2.1,1.7-3.1,2.6c-57.4,49.2-131.7,78-206.2,86.7c-1.1,0.1-1.1,0.1-2.2,0.3	c-12.2,1.4-24.2,1.6-36.5,1.4c0,1.2,0,1.2,0,2.4c0.1,7.6,0.3,15.3,0.4,22.9c0.1,3.9,0.1,7.9,0.2,11.8c0.1,3.8,0.1,7.6,0.2,11.4	c0,1.4,0,2.9,0.1,4.3c0.2,10.1-0.2,20-0.9,30.1c-6.3,0-12.5,0-19,0c0-4.3,0-8.6,0-13c-0.7-0.3-1.3-0.7-2-1c0.2-0.5,0.3-1.1,0.5-1.6	c1.6-6.1,1.5-11.2,0.5-17.4c0.7,0,1.3,0,2,0c0-16.5,0-33,0-50c-5,0-9.9,0-15,0c-2.8-0.2-5.6-0.4-8.4-0.7c-0.7-0.1-1.4-0.1-2.1-0.2	c-2.2-0.2-4.5-0.5-6.7-0.8c-0.8-0.1-1.6-0.2-2.4-0.3c-41.2-4.7-80.5-16-118.3-33c-0.8-0.4-1.7-0.8-2.6-1.1	C266,790.4,234.2,769.1,206,744c-0.7-0.6-1.5-1.3-2.2-2c-6.1-5.5-12.1-11.1-17.9-16.9c-1.5-1.5-3-2.9-4.4-4.4	c-13.3-13.3-13.3-13.3-17.5-19.7c1.2-3.6,2.2-4,5.3-6c3-1.9,5.9-3.8,8.7-6c2.8,2.7,5.5,5.5,8,8.5c3.4,4,6.9,7.6,10.9,10.9	c2.3,1.8,4.1,3.8,5.9,6c3.9,4.7,8.5,8.5,13.2,12.3c0.6,0.5,1.3,1.1,1.9,1.6c0.6,0.5,1.2,0.9,1.8,1.4c1.2,1.3,1.2,1.3,1.2,3.3	c0.8,0.3,1.6,0.5,2.4,0.8c1.3,0.6,1.3,0.6,2.6,1.2c0.3,1,0.7,2,1,3c1.7,0.7,3.3,1.4,5,2c1.8,1.3,3.5,2.7,5.2,4.1	c3.2,2.7,3.2,2.7,6.8,4.9c0,0.7,0,1.3,0,2c0.8,0.3,1.6,0.6,2.4,0.9c2.6,1.1,2.6,1.1,4.6,2.1c0,0.7,0,1.3,0,2c2,0.7,4,1.3,6,2	c0,0.7,0,1.3,0,2c2,0.7,4,1.3,6,2c0,0.7,0,1.3,0,2c0.8,0.2,1.7,0.5,2.6,0.7c3.8,1.4,6.9,3.3,10.3,5.4C305,788,337.1,800.2,370,809	c1.1,0.3,2.1,0.6,3.2,0.9c27.2,7.2,54.8,9.8,82.8,12.1c0-17.8,0-35.6,0-54c-4.6,0-9.2,0-14,0c-4.1-0.3-8.2-0.7-12.2-1.2	c-1.1-0.1-2.2-0.3-3.4-0.4c-68.2-8.6-132.3-37.8-182.6-84.8c-2.6-2.5-5.3-4.9-8.1-7.2c-3.5-3.2-6.7-6.5-9.8-10.1	c-1.9-2.2-3.8-4.3-5.7-6.3c-4.7-5-9.1-10.1-13.3-15.5c-0.5-0.6-1-1.2-1.5-1.8c-3.4-4.3-3.4-4.3-3.4-6.5	c-7.5,5.8-14.9,11.7-22.2,17.9c-4.8,4.1-9.9,8-15,11.8c-2.8,2.3-5.3,4.7-7.9,7.3c-1.3,1.3-2.7,2.6-4.1,3.9c-0.7,0.6-1.3,1.2-2,1.9	c-2,1.3-2,1.3-3.9,1c-2.5-1-3.2-1.9-4.6-4.1c-0.5-0.7-0.9-1.4-1.4-2.1c-0.5-0.8-1-1.5-1.5-2.3c-0.8-1.2-0.8-1.2-1.6-2.5	c-1.7-2.6-3.3-5.1-4.9-7.7c-0.5-0.8-1-1.6-1.5-2.4C95.4,599.1,72.1,530,71.8,461.6c0-1.2,0-2.3,0-3.5c0-3.7,0-7.4,0-11.1	c0-1.9,0-1.9,0-3.8c0-18,0.4-35.4,3.3-53.2c0.3-2,0.5-3.9,0.8-5.9c7.3-50.8,25.6-104.2,54.7-146.8c1.7-2.2,1.7-2.2,1.5-4.4	c-2.3-1.8-4.6-3.4-7.1-5c-0.7-0.5-1.4-1-2.2-1.5c-2.3-1.5-4.5-3-6.8-4.5c-1.5-1-2.9-2-4.4-2.9c-3.5-2.4-7.1-4.7-10.6-7.1	c-0.4,1.1-0.4,1.1-0.9,2.3c-1,2.3-2,4.3-3.3,6.4c-0.4,0.7-0.9,1.4-1.3,2.1c-1,1.6-2.1,3.2-3.2,4.8c-3.6,5.5-6.7,11-9.6,17	c-1.8,3.5-3.6,7-5.5,10.5c-3.7,6.9-7.2,13.7-10,21c-1.2,3-2.6,5.9-4,8.8c-3.6,7.8-6.4,15.8-9.2,23.9c-0.3,0.8-0.5,1.5-0.8,2.3	c-10,29.5-16.8,59.5-20.6,90.5c-0.1,0.7-0.2,1.3-0.2,2c-2,16.8-2.6,33.4-2.6,50.3c0,1,0,2,0,3c0,15.1,0.4,30.1,2.2,45.1	c0.1,0.9,0.2,1.8,0.3,2.7c3.5,32.7,11.2,64.5,21.8,95.6c0.2,0.7,0.5,1.5,0.8,2.2C58,612,61.7,621,66,630c1,2.2,1.9,4.5,2.8,6.8	c3,7,6.4,13.6,10,20.2c1.9,3.4,3.6,6.9,5.3,10.4c2.9,5.8,6.3,11.2,9.9,16.6c1.2,1.9,2.5,3.9,3.7,5.8c1.9,3,3.8,5.9,5.8,8.8	c1.6,2.4,1.6,2.4,1.6,4.4c0.7,0,1.3,0,2,0c0,1,0,2,0,3c0.7,0,1.3,0,2,0c1.3,1.7,1.3,1.7,2.6,3.9c0.4,0.7,0.9,1.4,1.4,2.2	c1,1.9,1,1.9,1,3.9c0.7,0,1.3,0,2,0c1.5,1.7,1.5,1.7,3.1,3.9c0.5,0.7,1.1,1.4,1.6,2.2c1.2,1.9,1.2,1.9,1.2,3.9c0.7,0,1.3,0,2,0	c0.7,1.7,1.3,3.3,2,5c0.7,0,1.3,0,2,0c0.3,1.3,0.7,2.6,1,4c0.7,0,1.3,0,2,0c4,4.5,4,4.5,4,7c0.7,0,1.3,0,2,0	c1.7,1.6,1.7,1.6,3.6,3.8c0.6,0.7,1.2,1.4,1.9,2.1c1.6,2,1.6,2,2.6,5c0.7,0,1.3,0,2,0c0,0.7,0,1.3,0,2c0.7,0,1.3,0,2,0	c1.3,1.4,1.3,1.4,2.8,3.2c3.5,4.2,7.2,8,11.5,11.5c0.9,0.8,1.8,1.5,2.7,2.3c0,0.7,0,1.3,0,2c0.7,0,1.3,0,2,0c0,0.7,0,1.3,0,2	c0.6,0.3,1.2,0.5,1.8,0.8c2.3,1.2,4,2.5,6,4.2c0.6,0.5,1.2,1,1.9,1.6c1.4,1.4,1.4,1.4,1.4,3.4c0.5,0.2,1,0.5,1.6,0.7	c3.3,1.8,6.6,3.8,9.4,6.3c0,0.7,0,1.3,0,2c1.7,0.7,3.3,1.3,5,2c0,0.7,0,1.3,0,2c0.5,0.2,1.1,0.5,1.6,0.8c3,1.6,5.7,3.3,8.4,5.2	c0,0.7,0,1.3,0,2c0.7,0.3,1.4,0.5,2.2,0.8c2.8,1.2,5.3,2.5,7.8,4.2c0,0.7,0,1.3,0,2c1,0,2,0,3,0c0,0.7,0,1.3,0,2	c0.7,0.2,1.4,0.5,2.1,0.7c3.4,1.5,6.4,3.4,9.5,5.4c1.2,0.8,2.5,1.6,3.7,2.4c1.2,0.8,2.4,1.6,3.6,2.4c2,1.3,3.9,2.5,5.9,3.8	c0.8,0.5,1.6,1,2.4,1.6c2.8,1.7,5.7,3.1,8.6,4.6c2.8,1.4,5.5,2.8,8.2,4.3c7.8,4.2,15.8,8.2,23.9,11.8c1.1,0.5,2.2,1,3.3,1.5	c3.6,1.6,7.1,3.1,10.7,4.5c0.6,0.3,1.2,0.5,1.9,0.8c36.6,15.2,74.8,24,114.1,28.8c1.1,0.1,1.1,0.1,2.2,0.3c1.8,0.2,3.6,0.4,5.4,0.6	c2.5,0.5,2.5,0.5,4.5,2.5c0.3,2.8,0.3,2.8,0.2,6.2c0,1.1,0,2.2,0,3.4c-0.3,3.4-1,6.2-2.3,9.4c-36.5-2.7-72.3-10.5-107-22	c-1-0.3-2-0.7-3-1c-59.5-19.7-119.4-54-163.2-99.2c-1.8-1.8-3.7-3.5-5.7-5.2c-7-6-13.4-12.6-19.4-19.6c-2-2.3-4-4.5-6-6.7	c-5-5.6-9.7-11.5-14.3-17.4c-1.5-2-3.1-4-4.7-6C71.6,694,47.6,648.2,32,600c-0.3-1-0.7-2-1-3.1c-8.4-25.8-14.1-52-18-78.9	c-0.2-1.1-0.3-2.2-0.5-3.4C7,476.4,7.2,434.2,13,396c0.2-1.4,0.4-2.8,0.6-4.2C23.7,324.6,48.7,238.6,97,188c4,0,5.6,1.5,8.9,3.7	c1,0.7,2.1,1.4,3.1,2.1c3,2.2,3,2.2,5.4,4.7c3.2,3.1,6.6,5.5,10.4,8c1.1,0.7,1.1,0.7,2.2,1.5c1.4,0.9,2.8,1.9,4.2,2.8	c1.6,1,3.1,2.1,4.6,3.2c4,2.7,8,5,12.3,7.1c3.2,1.7,6,3.8,8.9,6c-1.3,2.6-2.6,5.3-4,8c-0.7,0-1.3,0-2,0c-1,3-1,3-2,6	c-0.7,0-1.3,0-2,0c-0.2,0.8-0.5,1.7-0.7,2.6c-1.4,3.8-3.3,6.9-5.4,10.3C123,283,110.8,315.1,102,348c-0.3,1.1-0.6,2.1-0.9,3.2	C96.8,367.7,94,384.1,92,401c-0.2,1.4-0.2,1.4-0.4,2.8c-3.3,26.5-3.3,55,0,81.4c0.2,1.9,0.5,3.8,0.7,5.8c1.7,15.6,4.8,30.6,8.6,45.8	c0.2,0.8,0.4,1.7,0.6,2.6c2.7,10.7,5.7,21.2,9.4,31.6c0.2,0.6,0.5,1.3,0.7,1.9c3.7,10.3,7.9,20.4,12.5,30.4c0.5,1.1,0.5,1.1,1,2.2	c5,10.9,10.4,21.5,16.7,31.7c5.1,8.3,5.1,8.3,5.1,10.8c0.7,0,1.3,0,2,0c0.3,1.3,0.7,2.6,1,4c5-3.2,9.6-6.9,14.2-10.7	c1.5-1.3,3-2.5,4.5-3.8c1.1-0.9,1.1-0.9,2.2-1.8c2.7-2.3,5.5-4.5,8.3-6.8c3.6-3,7.2-5.9,10.8-8.9c-1.4-3.7-3.1-6.8-5.2-10.1	C162,573.6,148.4,533,141,491c-0.2-1-0.4-2-0.5-3c-5.6-32-5.3-69.1,0.5-101c0.3-1.7,0.3-1.7,0.6-3.4c7.5-41.8,22-81.5,44.3-117.8	c1.1-1.8,2.1-3.5,3.2-5.3c0.6-1,1.2-2,1.8-3c0.5-0.9,1-1.7,1.6-2.6c1.6-1.9,1.6-1.9,3.4-2.9c3.2,0,4.8,1.5,7.4,3.4	c0.9,0.7,1.8,1.3,2.7,2c0.7,0.5,1.4,1,2,1.6c-0.4,1.4-0.8,2.8-1.2,4.2c-0.3,1.2-0.3,1.2-0.7,2.4c-1.3,2.9-3,5-5,7.5	c-1.1,2-2.1,3.9-3,5.9c-1.5,3.1-2.9,6-4.9,8.8c-39.1,59.7-44.8,144.3-31.2,212.7c7,33.4,19,65.2,36.7,94.3c1.1,1.9,2.2,3.8,3.3,5.7	c4.6,8.5,4.6,8.5,10.6,16.1c1.9,1.9,3.1,4.1,4.5,6.5c3.5,4.7,7.3,9.2,11.2,13.7c0.5,0.6,1.1,1.3,1.7,1.9c1.1,1.3,2.2,2.5,3.3,3.8	c3.9,4.4,3.9,4.4,3.9,6.6c0.6,0.3,1.2,0.5,1.8,0.8c2.3,1.3,3.4,2.4,5,4.5c2.7,3.3,5.6,5.9,8.9,8.5c0.4,0.4,0.9,0.8,1.3,1.3	c0,0.7,0,1.3,0,2c0.5,0.2,1,0.4,1.6,0.6c3.4,1.9,6.2,4.5,9.1,7c7.1,6.2,14.3,12.2,22.3,17.3c1.5,1,3,2,4.4,2.9	c0.8,0.5,1.6,1,2.4,1.6c1.9,1.3,3.7,2.6,5.5,4c4,2.9,8.3,4.9,12.7,7c3,1.5,3,1.5,5.7,3.4c23.7,15.5,53,23.9,80.3,30.1	c0.9,0.2,1.7,0.4,2.6,0.6c18.5,4.3,37.6,5.6,56.4,7.4c0-5.3,0-10.6,0-16c5.6,0,11.2,0,17,0c0,5.3,0,10.6,0,16	c20.6-1.5,40.8-3.5,61-8c1.1-0.2,2.2-0.5,3.3-0.7c26.7-6.1,54.3-15.3,77.6-30c2-1.2,4-2.2,6.1-3.2c5.3-2.6,10.1-5.8,15.1-9.1	c0.8-0.5,1.6-1,2.4-1.6c5-3.3,9.8-6.8,14.6-10.4c0.7-0.5,1.3-1,2-1.5c5.6-4.3,11-8.9,16.3-13.6c4.5-3.9,4.5-3.9,6.7-3.9	c0.4-0.9,0.4-0.9,0.8-1.8c1.3-2.3,2.4-3.4,4.5-5c3.3-2.7,5.9-5.6,8.5-8.9c0.4-0.4,0.8-0.9,1.3-1.3c0.7,0,1.3,0,2,0	c0.2-0.5,0.4-1,0.6-1.6c1.9-3.4,4.5-6.2,7-9.1c6.2-7.2,12.1-14.4,17.3-22.3c0.7-0.8,1.3-1.6,2-2.4c1.9-2.4,3.4-5,4.9-7.6	c2.2-3.7,4.6-7.3,6.9-10.8c2.1-3.3,3.8-6.4,5.2-10.1c0.9-1.6,1.7-3.2,2.6-4.8c5.2-9.4,9.4-19.2,13.4-29.2c0.3-0.7,0.6-1.5,0.9-2.3	c30.3-75.3,26.2-162.6-4.9-236.7c-3.7-8.6-7.7-16.9-12.7-24.9c-1.2-2-2.3-4.1-3.3-6.2c-1.5-3.1-3.3-5.8-5.2-8.6	c-1.8-2.7-2.8-4.4-3.6-7.6c1.4-4.5,5-6.4,8.9-8.8c1.3-0.7,2.7-1.3,4-2c28.4,39.2,44.6,85.7,53,133c0.2,1,0.4,2,0.5,3	c5.6,32,5.3,69.1-0.5,101c-0.2,1.1-0.4,2.3-0.6,3.4c-8.9,49.2-27.4,101.8-60.1,140.6c-0.4,0.6-0.8,1.3-1.3,1.9	c1.1,3.4,1.7,3.8,4.6,5.7c0.8,0.5,1.5,1,2.3,1.5c0.8,0.5,1.6,1.1,2.5,1.6c1.7,1.2,3.5,2.3,5.2,3.5c0.9,0.6,1.8,1.2,2.7,1.8	c2.7,1.8,5.4,3.7,8.1,5.5c0.9,0.6,1.7,1.2,2.6,1.8c1.7,1.1,3.3,2.3,5,3.4c0.8,0.5,1.5,1,2.3,1.6c0.7,0.5,1.3,0.9,2,1.4	c1.9,1.3,1.9,1.3,4.8,2.1c0.3-0.8,0.6-1.6,0.9-2.4c1.1-2.6,1.1-2.6,2.1-4.6c0.7,0,1.3,0,2,0c0.7-2,1.3-4,2-6c0.7,0,1.3,0,2,0	c0.7-2,1.3-4,2-6c0.7,0,1.3,0,2,0c0.2-0.8,0.5-1.7,0.7-2.6c1.4-3.8,3.3-6.9,5.4-10.3C810,606,822.2,573.9,831,541	c0.3-1.1,0.6-2.1,0.9-3.2c4.1-15.4,6.8-30.8,8.7-46.6c0.2-2,0.5-3.9,0.8-5.9c4.1-30.5,2.9-62.9-1.4-93.3c-0.1-1-0.3-1.9-0.4-2.9	c-1.8-13.1-4.9-25.8-8-38.6c-0.2-0.8-0.4-1.5-0.6-2.3c-5.4-21.6-13-42.3-22.2-62.5c-0.3-0.7-0.6-1.4-1-2.2	c-5-10.9-10.4-21.5-16.7-31.7c-5.1-8.3-5.1-8.3-5.1-10.8c-0.7,0-1.3,0-2,0c-0.7-2-1.3-4-2-6c-0.7,0-1.3,0-2,0c-0.7-2-1.3-4-2-6	c-0.7,0-1.3,0-2,0c-0.7-1.3-1.3-2.6-2-4c4.5-4.8,9.6-8.6,14.8-12.6c1.4-1.1,1.4-1.1,2.8-2.1c4.4-3.3,8.8-6.6,13.3-9.9	c1.1-0.8,1.1-0.8,2.2-1.7c1.4-1,2.7-2,4.1-3c2.8-2.1,4.8-3.8,6.8-6.7c0.7,0,1.3,0,2,0c0-0.7,0-1.3,0-2c1.5-1.3,1.5-1.3,3.4-2.6	c0.9-0.7,0.9-0.7,1.9-1.4C827,182,827,182,829,182z"/><path d="M449.1,2c1.2,0,2.4,0,3.6,0c3.8,0,7.6,0,11.4,0c1.3,0,2.6,0,3.9,0c19.2,0,38.1,0.4,57.1,3.2c1.2,0.2,2.4,0.3,3.7,0.5	c28,4,55.4,10.5,82.2,19.5c1,0.3,2,0.7,3,1c42.8,14.2,83.8,35.9,119.8,62.9c1.1,0.8,2.3,1.7,3.4,2.5c6.7,5,13.2,10.1,19.6,15.5	c0.5,0.4,1,0.9,1.6,1.3c15.4,12.9,30.8,26.5,43.8,41.8c1.1,1.3,2.2,2.5,3.4,3.8c0.6,0.6,1.1,1.2,1.7,1.8c0.5,0.5,1,1.1,1.5,1.6	c1,1.6,1,1.6,0.9,3.6c-1.1,2.5-2.5,3.8-4.6,5.6c-0.7,0.6-1.3,1.2-2,1.8c-2.2,1.7-2.2,1.7-4.6,3.1c-3.3,2-6.2,4.5-9.1,7.1	c-4.7,4.1-9.5,8.1-14.5,11.9c-5.7,4.4-11.2,9.1-16.6,13.8c-4.5,3.9-9,7.7-13.6,11.4c-3.1,2.5-6.2,5.1-9.2,7.7	C719,237.4,719,237.4,711,243c-15-16.4-15-16.4-15-19c-0.6-0.3-1.2-0.5-1.8-0.8c-2.3-1.3-3.4-2.4-5-4.4c-2.7-3.3-5.6-5.9-8.9-8.5	c-0.4-0.4-0.9-0.8-1.3-1.3c0-0.7,0-1.3,0-2c-0.5-0.2-1-0.4-1.6-0.6c-3.4-1.9-6.2-4.5-9.1-7c-7.1-6.2-14.3-12.2-22.3-17.3	c-1.5-1-3-2-4.4-2.9c-0.8-0.5-1.6-1-2.3-1.6c-1.9-1.3-3.7-2.6-5.5-4c-4-2.9-8.3-4.9-12.7-7c-3-1.5-3-1.5-5.7-3.4	c-23.6-15.5-52.9-23.9-80.2-30.1c-0.9-0.2-1.8-0.4-2.8-0.6c-69.7-15.5-153.6-7.1-214.9,31.3c-1.9,1.2-3.9,2.2-5.9,3.2	c-8.6,4.2-16.7,9.5-24.2,15.6c-2.2,1.7-4.6,3.1-7,4.5c-4.7,3.5-9.2,7.3-13.7,11.2c-0.6,0.5-1.3,1.1-1.9,1.7	c-1.3,1.1-2.5,2.2-3.7,3.3c-4.4,3.9-4.4,3.9-6.6,3.9c-0.3,0.6-0.5,1.2-0.8,1.8c-1.3,2.3-2.4,3.4-4.4,5c-3.3,2.7-5.9,5.6-8.5,8.9	c-0.4,0.4-0.8,0.9-1.3,1.3c-0.7,0-1.3,0-2,0c-0.2,0.5-0.4,1.1-0.7,1.6c-1.8,3.2-4.1,5.9-6.4,8.6c-0.5,0.6-0.9,1.1-1.4,1.7	c-1.1,1.4-2.3,2.7-3.5,4.1c-4.2-0.6-6.8-1.9-10.2-4.3c-1.6-1.1-1.6-1.1-3.2-2.2c-1.2-0.8-2.4-1.7-3.6-2.5c-0.6-0.4-1.3-0.9-1.9-1.3	c-8-5.6-16-11.3-23.9-17.1c-6.9-5-13.9-9.9-21-14.7c-5.6-3.8-11-7.7-16.5-11.7c-6.1-4.5-12.3-8.6-18.8-12.5	c-3.8-2.3-7.3-4.9-10.8-7.7c2.9-4.5,6-8.4,9.7-12.2c1.1-1.1,2.2-2.3,3.2-3.4c0.5-0.6,1.1-1.1,1.6-1.7c2-2.2,4-4.4,6-6.7	c7-7.8,14.5-15.4,22.5-22.2c2.2-1.9,4.4-3.9,6.6-5.9c5.6-5.1,11.6-9.7,17.6-14.4c1.6-1.2,3.2-2.5,4.8-3.8	C257.9,40.7,344,9.2,449.1,2z M419,19c-0.9,0.1-1.9,0.2-2.8,0.3C400.6,21,385.3,23.7,370,27c-1,0.2-1.9,0.4-2.9,0.6	c-27.8,6.1-57.1,15.2-82.5,28.1c-3.5,1.7-7,3.4-10.5,5c-7.2,3.4-14.4,6.7-21.1,11c-2.9,1.8-5.8,3.4-8.8,5	c-6.2,3.4-12.3,7.1-18.2,10.9c-0.8,0.5-1.6,1-2.4,1.5c-0.7,0.5-1.5,0.9-2.2,1.4c-0.7,0.4-1.3,0.8-2,1.3c-0.5,0.4-1,0.8-1.4,1.2	c0,0.7,0,1.3,0,2c-1,0-2,0-3,0c0,0.7,0,1.3,0,2c-1.1,0.4-1.1,0.4-2.2,0.8c-2.8,1.2-5.3,2.5-7.8,4.2c0,0.7,0,1.3,0,2	c-0.7,0.2-1.4,0.5-2.2,0.8c-3.1,1.4-5.3,3-7.8,5.2c0,0.7,0,1.3,0,2c-2.5,1-2.5,1-5,2c0,0.7,0,1.3,0,2c-2,0.5-2,0.5-4,1	c0,0.7,0,1.3,0,2c-0.6,0.3-1.2,0.6-1.8,0.9c-2.4,1.2-2.4,1.2-5.2,3.1c0,0.7,0,1.3,0,2c-0.9,0.4-0.9,0.4-1.8,0.8	c-2.3,1.2-4,2.5-6,4.2c-0.6,0.5-1.2,1-1.9,1.6c-1.6,1.3-1.6,1.3-1.4,3.4c-0.7,0-1.3,0-2,0c0,0.7,0,1.3,0,2c-1.5,0.5-1.5,0.5-3,1	c0,0.7,0,1.3,0,2c-0.6,0.3-1.3,0.5-1.9,0.8c-2.4,1.1-2.4,1.1-3.1,4.2c-0.6,0.3-1.3,0.6-1.9,0.9c-2.5,1.3-2.8,2.5-4.1,5.1	c-1,0.3-2,0.7-3,1c0,0.7,0,1.3,0,2c-0.7,0-1.3,0-2,0c0,0.7,0,1.3,0,2c-0.7,0-1.3,0-2,0c-1.4,1.6-1.4,1.6-2.6,3.5c-0.7,1-0.7,1-1.4,2	c-0.3,0.5-0.7,1-1,1.5c10,7.1,19.9,14.1,30,21c3.1-3.1,6.3-6.3,9.4-9.5c2.3-2.3,4.6-4.6,6.9-7c1.2-1.2,2.4-2.4,3.6-3.6	c7.4-7.5,14.8-14.4,23.1-20.9c1.1-0.9,2.2-1.9,3.3-2.8C279.5,85,368.8,51.4,452.7,50.8c1.1,0,2.2,0,3.3,0c25.3-0.2,50,0.3,75,4.3	c1.2,0.2,2.3,0.4,3.5,0.6c34.2,5.5,67,16.2,98.5,30.4c1.3,0.6,1.3,0.6,2.6,1.1c31.7,14.2,60.8,33.5,87.4,55.9c1,0.8,1.9,1.6,2.9,2.4	c12.5,10.3,23.7,22.1,35.1,33.6c3.4-1.2,5.9-2.5,8.5-4.8c0.6-0.6,1.3-1.1,1.9-1.7c0.6-0.6,1.3-1.2,1.9-1.7c1.3-1.1,2.6-2.3,3.8-3.4	c0.9-0.8,0.9-0.8,1.9-1.7c2.5-2.2,5.1-4.3,7.6-6.4c1.5-1.2,1.5-1.2,1.3-3.3c-0.7,0-1.3,0-2,0c0-0.7,0-1.3,0-2c-0.7,0-1.3,0-2,0	c-0.3-1-0.7-2-1-3c-0.7,0-1.3,0-2,0c-0.3-0.6-0.5-1.2-0.8-1.8c-1.3-2.4-2.8-4.1-4.7-6c-0.6-0.6-1.2-1.2-1.8-1.9	c-1.6-1.6-1.6-1.6-3.7-1.4c-0.3-1-0.7-2-1-3c-0.7,0-1.3,0-2,0c0-0.7,0-1.3,0-2c-0.7,0-1.3,0-2,0c0-0.7,0-1.3,0-2	c-1.5-1.6-1.5-1.6-3.4-3.1c-0.6-0.5-1.3-1.1-1.9-1.6c-1.6-1.4-1.6-1.4-3.7-1.2c0-0.7,0-1.3,0-2c-0.7,0-1.3,0-2,0c0-0.7,0-1.3,0-2	c-1.9-1.8-1.9-1.8-4.4-3.6c-1.2-0.9-1.2-0.9-2.5-1.9c-2-1.6-2-1.6-4.2-1.5c0-0.7,0-1.3,0-2c-2.5-1-2.5-1-5-2c0-0.7,0-1.3,0-2	c-1.7-1.6-1.7-1.6-3.9-3.1c-0.7-0.5-1.4-1.1-2.2-1.6c-1.8-1.4-1.8-1.4-3.9-1.2c0-0.7,0-1.3,0-2c-1.7-1.4-1.7-1.4-3.9-2.6	c-0.7-0.4-1.4-0.9-2.2-1.4c-1.9-1.2-1.9-1.2-3.9-1c0-0.7,0-1.3,0-2c-1,0-2,0-3,0c0-0.7,0-1.3,0-2c-1.5-1.2-1.5-1.2-3.4-2.4	c-0.7-0.5-1.4-0.9-2.2-1.4c-0.8-0.5-1.6-1-2.3-1.5c-1.2-0.7-1.2-0.7-2.4-1.5c-5.1-3.3-10.3-6.3-15.7-9.2c-1.2-0.7-2.3-1.3-3.5-2	c-0.9-0.5-0.9-0.5-1.7-1c-1.2-0.7-2.4-1.4-3.6-2.1c-6.8-3.9-13.8-7.3-20.8-10.8c-1.7-0.8-3.4-1.7-5.1-2.6	C613.3,37.8,567.4,25.4,522,20c-1.2-0.1-2.3-0.3-3.5-0.4C485.7,15.5,451.8,15.1,419,19z M414,70c-1.5,0.2-1.5,0.2-3,0.4	c-13,1.8-25.8,4.9-38.5,8c-0.8,0.2-1.5,0.4-2.3,0.6c-21.6,5.4-42.3,13-62.5,22.2c-0.7,0.3-1.4,0.6-2.2,1	c-10.9,5-21.4,10.3-31.5,16.6c-3.6,2.2-7.3,4.2-11,6.2c0,0.7,0,1.3,0,2c-2,0.7-4,1.3-6,2c0,0.7,0,1.3,0,2c-2,0.7-4,1.3-6,2	c0,0.7,0,1.3,0,2c-0.8,0.3-1.6,0.6-2.4,0.9c-2.5,1-2.5,1-4.6,2.1c0,0.7,0,1.3,0,2c-1.1,0.4-1.1,0.4-2.2,0.8c-3,1.3-5.1,2.9-7.6,5	c-3.1,2.6-6.2,5.1-9.5,7.4c-3.2,2.4-5.9,5-8.7,7.8c-1.2,1-2.3,2-3.5,3c-3.8,3.2-7.3,6.4-10.3,10.4c-1.9,2.3-3.7,4-6,5.9	c-4.1,3.5-8.1,7.2-11.2,11.7c0,1,0,2,0,3c1.7,1.6,1.7,1.6,3.9,3c0.8,0.6,1.7,1.1,2.5,1.7c0.9,0.6,1.8,1.2,2.7,1.8	c1.8,1.3,3.7,2.5,5.5,3.8c0.9,0.6,1.8,1.2,2.8,1.9c2.3,1.6,4.6,3.3,6.9,5c0.9,0.7,0.9,0.7,1.9,1.4c1.2,0.9,2.3,1.7,3.5,2.6	c2.8,2.2,2.8,2.2,6.3,2.5c2.3-0.9,3.3-1.8,5-3.7c0.5-0.6,1.1-1.2,1.6-1.8c0.8-0.9,0.8-0.9,1.7-1.9c4-4.5,8-8.8,12.7-12.6	c2.6-2.2,5-4.5,7.5-6.9c45.4-42,105.9-68.2,166.6-77.9c0.9-0.1,1.7-0.3,2.6-0.5c31.9-5.4,67.6-5.1,99.4,0.5c1,0.2,2.1,0.3,3.1,0.5	c65,10.6,124,40.7,171.9,85.5c1.1,1,2.1,1.9,3.2,2.8c5.2,4.7,10.1,9.3,14.4,14.8c1.4,1.7,1.4,1.7,4.4,1.4c2-1.5,3.9-3.1,5.8-4.8	c1.2-1,2.3-2,3.5-3c0.6-0.5,1.2-1,1.8-1.6c3.1-2.6,6.2-5.1,9.4-7.5c0.6-0.4,1.1-0.9,1.7-1.4c0.5-0.4,1.1-0.9,1.7-1.3	c2.7-2.1,5.4-4.3,8.1-6.4c-1.4-4.5-3.6-6.8-7-10c-0.9-0.9-1.8-1.9-2.7-2.8c-2-2.4-2-2.4-4.3-2.2c-0.2-0.6-0.4-1.1-0.6-1.7	c-1.5-2.6-3.4-4.2-5.8-6c-2.4-1.9-4.4-4.1-6.6-6.3c-1.7-1.5-3.5-3-5.3-4.5c-1.7-1.5-1.7-1.5-3.6-3.4c-9.9-10.4-9.9-10.4-22.1-16.1	c0-0.7,0-1.3,0-2c-3.2-2.3-3.2-2.3-7-3c0-0.7,0-1.3,0-2c-2-0.7-4-1.3-6-2c0-0.7,0-1.3,0-2c-2-0.7-4-1.3-6-2c0-0.7,0-1.3,0-2	c-0.6-0.3-1.3-0.7-1.9-1c-5.3-2.9-10.6-5.8-15.8-8.8C630.8,102.8,607.8,92,584,85c-0.9-0.3-1.8-0.5-2.8-0.8	c-37.1-11-74.3-17.4-113.1-17.4c-1,0-1.9,0-2.9,0C448,66.8,431.1,67.7,414,70z"/><path d="M424,243c1.6,0,3.3,0,5,0c0,0.7,0,1.3,0,2c0.6,0.2,1.2,0.3,1.9,0.5c2.8,2,3.1,3.9,3.8,7.2c4.7,30.1,1.8,65.2-16.1,90.7	c-7.1,9.7-15.7,20-26.5,25.6c-1,0-2,0-3,0c0,11.2,0,22.4,0,34c2.8-0.1,5.5-0.2,8.4-0.2c7.4-0.1,13,0.8,19.6,4.2	c1.6,0.7,3.2,1.3,4.8,2c3.7,1.7,7,3.6,10.2,6c0.6,0.4,1.2,0.8,1.9,1.2c9.8,7.4,13.9,20.6,18.1,31.8c0.3,0.8,0.6,1.6,0.9,2.4	c5.4,14.8,4.9,34.1-0.3,48.9c-1.1,3.3-2,6.5-2.7,9.9c-4,18.4-12.4,33.3-23.2,48.6c-2.2,3.1-4.2,6.2-6.2,9.4	c-0.4,0.6-0.8,1.2-1.2,1.8c-2.5,3.9-4.8,7.9-7,12.1c-1.3,2.1-1.3,2.1-3.7,4.9c-2.6,3.1-4.2,6.3-5.9,9.9c-3.1,6.5-7,11.8-11.7,17.2	c-0.8,1.1-0.8,1.1-1.6,2.3c-0.5,0.6-0.9,1.1-1.4,1.7c-0.7,0-1.3,0-2,0c-0.4,0.8-0.4,0.8-0.7,1.7c-1.5,2.8-3.3,4.9-5.4,7.3	c-4.1,4.9-7.6,9.9-11.1,15.3c-1.8,2.7-3.8,5.2-5.8,7.7c-0.5,0.8-1.1,1.5-1.6,2.3c-0.7,0.8-0.7,0.8-1.4,1.7c-0.7,0-1.3,0-2,0	c-0.3,1-0.7,2-1,3c-0.7,0-1.3,0-2,0c0,0.7,0,1.3,0,2c-6.4,1.3-6.4,1.3-8.9,0c-1.7-3.1-2.1-5.4-2.1-9c0.8-1.9,1.9-3.5,3-5.3	c1.4-2.5,1.7-4.9,2-7.7c-0.7,0.9-0.7,0.9-1.4,1.8c-4.4,3.8-9.1,6.3-15,6.1C330,643,330,643,328,641c0.2-5.9,1.2-9.4,5-14	c0.7,0,1.3,0,2,0c0.4-0.9,0.4-0.9,0.8-1.8c1.2-2.2,1.2-2.2,3.2-4.1c2.3-2.2,2.3-2.2,3.4-5.6c1.9-4,3.6-5.5,7-8.2	c2.4-2.1,3.9-4.8,5.7-7.5c1.7-1.3,3.3-2.7,5-4c1.7-1.8,3.3-3.7,5-5.7c1.5-1.7,3-3.3,4.6-4.9c5.1-5.2,8.3-9.1,9.9-16.3	c0.8-3,2.6-4.8,4.6-7.1c0.7-1.7,1.4-3.3,2-5c1.5-4,3.2-6.7,6-10c1.3-2.2,2.5-4.4,3.7-6.7c1.2-2.1,2.4-4.1,3.7-6.1	c4.6-7.2,8-15.1,10.6-23.2c0.7,0,1.3,0,2,0c0-0.7,0.1-1.5,0.1-2.2c0.1-1,0.1-2,0.2-3c0.1-1.4,0.1-1.4,0.2-2.9	c0.4-2.9,1.3-5.2,2.4-7.9c0.4-2.4,0.4-2.4,0.6-4.7c0.3-4.1,0.3-4.1,1.4-6.3c0.2-4.3,0.2-8.7,0.2-13c0-1.2,0-2.4,0-3.6	c0-9.1-0.2-18.4-5.2-26.4c-1.3-1-2.7-2-4-3c0-1,0-2,0-3c-8.2-2.5-17-3.7-25,0c0,0.6-0.1,1.2-0.1,1.8c-0.7,8.5-2.8,15.8-6.3,23.5	c-2.3,5.4-3.7,10.8-5,16.5c-2.1,8.9-5,16.2-9.6,24.1c-0.6,1-1.1,2-1.7,3c-4.8,7.9-11.1,14.1-17.7,20.5c-2.4,2.3-4.6,4.7-6.7,7.2	c-2.5,3-5.2,5.5-8.3,7.9c-0.9,0.8-1.9,1.5-2.9,2.3c-0.9,0.7-1.8,1.4-2.7,2.1c-1.3,1.1-2.6,2.2-3.9,3.3c-0.5,0.4-1,0.9-1.5,1.3	c-1.6,1.4-1.6,1.4-3.3,3.3c-9.1,8.7-25.6,18.2-38.2,20.1c-3.5-0.8-5.4-1.4-8-4c-0.4-2.4-0.4-2.4,0-5c2-2,2-2,4.5-3.8	c0.8-0.6,1.7-1.2,2.5-1.8c0.6-0.4,1.3-0.9,2-1.4c-1.2,0.1-1.2,0.1-2.5,0.3c-1.1,0.1-2.2,0.2-3.3,0.3c-1.6,0.2-1.6,0.2-3.3,0.4	c-2.9,0-2.9,0-5.9-2c0-1,0-2,0-3c-0.7,0-1.3,0-2,0c1.2-3.5,2.2-4.7,5-7c3.5-1.4,7-2.5,10.6-3.6c3.8-1.6,5.6-3.5,8.4-6.4	c2.2-1.3,2.2-1.3,4.4-2.4c4.1-2.1,6.9-4.7,10.1-8c1.5-1.6,1.5-1.6,4-3.4c3.3-2.9,5.4-6.2,7.8-9.8c2-2.8,4.3-5,6.7-7.4	c2.2-3,4-6,5.6-9.3c1.4-2.7,1.4-2.7,3.4-3.7c1.1-2.3,2.1-4.6,3-7c0.9-2.1,1.7-4.1,2.6-6.2c0.6-1.5,0.6-1.5,1.3-3	c1.2-2.8,1.2-2.8,2.3-4.8c1-2.2,1.4-4.3,1.8-6.7c0.9-4.7,2.3-8.8,4.1-13.2c0.3-0.9,0.7-1.8,1-2.7c0.3-0.9,0.7-1.8,1.1-2.8	c0.3-0.8,0.6-1.7,1-2.6c1-2,1-2,3-3c1.5-4.9,2.3-9.5,2.6-14.5c0.4-2.5,0.4-2.5,1.9-5.9c2.2-5.7,2.6-11.5,3.3-17.5	c0.2-1.7,0.2-1.7,0.4-3.5c0.3-2.8,0.6-5.7,0.9-8.5c0.7,0,1.3,0,2,0c0-3,0-5.9,0-9c-0.7,0.3-1.3,0.7-2,1c-2.7,0.1-5.4,0.2-8.2,0.2	c-0.8,0-1.6,0-2.5,0c-1.7,0-3.4,0-5.2,0c-2.6,0-5.3,0-7.9,0c-1.7,0-3.3,0-5,0c-0.8,0-1.6,0-2.4,0c-3.8,0-5.7-0.1-8.9-2.3	c-2.6-0.4-2.6-0.4-5.5-0.5c-1.6-0.1-1.6-0.1-3.3-0.2c-1.7-0.1-1.7-0.1-3.5-0.2c-23.6-1.6-23.6-1.6-31.6-7.1c-1.4-2.8-1.3-4.9-1-8	c1.1-1.7,1.1-1.7,3-3c4-0.4,7.9-0.1,12,0c-5-3.5-5-3.5-10-7c0.3-2.3,0.6-4.7,1-7c4.6-2.3,11-1.1,16-1c1.5,0,1.5,0,3,0	c7.1,0.3,12.8,2.2,19.3,4.8c5.1,2,9.3,3.1,14.7,3.2c1.4,0,2.8,0.1,4.3,0.1c1.6,0,3.2,0.1,4.8,0.1c0.8,0,1.5,0,2.3,0.1	c5.5,0,9.6-1.1,14.6-3.3c-0.3-0.5-0.6-1.1-0.9-1.6c-1.2-2.8-1.5-5.2-1.9-8.2c-1.1-7.8-3.5-14.8-6.2-22.2c-0.3-1-0.7-2.1-1-3.1	c-1.3-3.6-2.9-6.9-4.7-10.3c-1.3-2.5-1.3-2.5-2.2-4.7c-2.9-7-8.4-10-15.1-13.2c-4.1-2.1-7.6-4.8-11.3-7.6c-2.3-1.7-4.5-3.1-6.9-4.6	c-2.8-2.4-2.8-2.4-3.4-5.6c0.6-2.8,0.6-2.8,3.6-4.8c6.1-0.3,12,0.3,18,1c-0.3-0.6-0.7-1.3-1-1.9c-1.3-4.1-1.2-7.8-1-12.1	c2.5-1.6,3.9-2,6.9-1.9c3.7,1.1,5.3,2.6,7.9,5.3c0.8,0.8,1.6,1.6,2.4,2.4c1.8,2.1,1.8,2.1,1.8,4.1c0.8,0.3,0.8,0.3,1.6,0.7	c9.4,5.3,16,15.2,21.5,24.2c1.5,2.4,3,4.7,4.7,6.9c2.2,3.2,3.7,6.2,5.2,9.8c0.7,1.6,1.4,3.2,2.2,4.8c2.9,5.9,4.9,11.8,6.6,18.1	c0.2,0.8,0.4,1.6,0.7,2.4c1,3.6,1.5,6.4,1.5,10.2c8-3.9,14.9-10.5,18-19c0.6-2.4,1-4.8,1.5-7.3c0.6-2.8,1.4-5.5,2.2-8.3	c1.2-4.4,1.4-7.5,0.6-12c-0.4-3-0.2-5.8,0-8.8c0.1-9.9-2.8-21.4-8.3-29.6c0.1-2.6,0.1-2.6,1-5c2.3-1.9,3.8-2,6.8-2	c4.8,1.5,8.7,4.5,12.2,8c0.2-0.6,0.4-1.1,0.6-1.7c0.3-0.7,0.5-1.5,0.8-2.2c0.2-0.7,0.5-1.5,0.7-2.2c0.9-1.8,0.9-1.8,3.9-2.8	C424,244.3,424,243.7,424,243z"/><path d="M483.9,376c3.8,1.1,5.3,2.2,7.4,5.5c1.9,4,3.1,8.2,4.3,12.4c1.2,4,2.5,7.6,4.3,11.4c2.5,5.1,4,10.3,5.6,15.8	c0.3,0.9,0.5,1.8,0.8,2.7c0.3,0.9,0.5,1.7,0.8,2.6c3.1,10.5,7.4,20,12.4,29.8c1.7,3.3,3.3,6.6,5,10c0.6,1.2,1.2,2.4,1.8,3.6	c2.7,5.5,5.5,10.9,8.2,16.4c5.1-7.7,7.4-16.3,9.6-25.3c0.8-3.4,1.6-6.6,2.9-9.8c3.3-8.1,5.5-17,6.2-25.6c0.5-4,1.5-7.9,2.5-11.8	c1.5-6.4,2.7-12.8,3.8-19.2c0.2-1,0.3-1.9,0.5-2.9c0.3-2,0.6-3.9,1-5.9c0.2-1.4,0.2-1.4,0.5-2.9c0.1-0.8,0.3-1.7,0.4-2.6	c0.7-2.1,0.7-2.1,3.7-4.1c2.1,0.1,2.1,0.1,4,1c1.2,1.7,1.2,1.7,2.1,3.8c0.3,0.7,0.6,1.4,0.9,2.1c0.3,0.7,0.6,1.4,0.9,2.1	c0.7,1.3,1.3,2.7,2,4c0.4-0.7,0.8-1.4,1.2-2.2c3-4.6,6.7-8.6,11.8-10.8c2.2,0.6,2.2,0.6,4,2c1.3,3.9,1,7.4,0.8,11.4	c0,0.8-0.1,1.6-0.1,2.4c-0.4,6-1.4,11.6-3,17.4c-0.7,2.8-0.7,2.8-0.6,5.7c0,3.3-0.7,5.9-1.5,9.1c-0.8,3.2-1.3,6.4-1.8,9.7	c-1.2,7-2.6,13.9-4.1,20.9c-0.3,1.4-0.3,1.4-0.6,2.7c-1.2,5.2-2.7,9.7-5,14.5c-1.7,3.8-3,7.9-4.3,11.9c-2.1,6.3-4.5,12.3-7.4,18.3	c-3.2,6.6-5.4,13-7.3,20.1c1,0.4,1,0.4,1.9,0.9c2.1,1.1,2.1,1.1,3,3.1c0.9,2.2,0.9,2.2,3.4,2.9c2.9,1.2,4.2,2.5,6.4,4.9	c3.6,3.7,7.2,6.2,11.7,8.7c2.8,1.6,5.5,3.4,8.3,5.1c3.2,2.1,6.5,4,9.9,5.6c3.4,1.8,3.4,1.8,5.4,4.8c3.1,1.2,3.1,1.2,6.8,2.1	c1.2,0.3,2.4,0.7,3.7,1c3.2,0.8,6.3,1.4,9.6,1.9c0,0.7,0,1.3,0,2c2.9,0.5,5.7,1,8.6,1.4c1.2,0.2,1.2,0.2,2.4,0.4	c4.7,0.8,9.3,1.5,14,2.2c4.7,0.7,4.7,0.7,7,3c0.1,2.9,0.1,2.9-1,6c-1.8,1-3.5,2-5.3,2.9c-2,1.1-2,1.1-3.1,4.3	c-0.2,0.9-0.4,1.8-0.6,2.8c0.6,0.6,1.2,1.2,1.8,1.8c1.1,1.2,1.1,1.2,2.3,2.4c0.8,0.8,1.5,1.6,2.3,2.4c1.7,2.5,1.7,2.5,1.5,5.2	c-0.9,2.3-0.9,2.3-2.9,3.3c-8,0.7-14.3-1.4-21.8-4c-1.2-0.4-2.4-0.8-3.6-1.2c-19.7-6.9-38.9-14.6-56.6-25.8c-1.5-0.9-3-1.8-4.4-2.7	c-9-5.6-17.6-11.2-25.6-18.3c-2.2,2-2.2,2-3.5,5.3c-2.9,5.9-7.1,11-11.2,16.1c-1.2,1.5-2.3,2.9-3.4,4.4c-3.6,4.7-7.3,8.6-11.8,12.4	c-3.9,3.4-7.5,7.1-11.1,10.8c-0.9,0.9-1.8,1.7-2.7,2.6c-1.9,1.9-3.6,3.8-5.3,5.9c-2.5,3-5.1,5.8-8,8.5c-0.7,0-1.3,0-2,0	c-0.2,0.6-0.5,1.2-0.8,1.8c-2.6,4.8-7.2,8-11.3,11.5c-2.2,1.9-2.2,1.9-4.6,4.7c-2.3,2.1-2.3,2.1-4.9,2.5c-2.4-0.4-2.4-0.4-5.4-2.4	c-0.3-4.2,0-7.9,1-12c-4.2,0.3-4.2,0.3-7.6,2.6c-0.5,0.5-0.9,0.9-1.4,1.4c-3.3-0.2-4.6-0.6-7-3c0.3-5.2,1.5-9.5,4-14	c2.9-2.2,2.9-2.2,6-4c3.7-2.1,6.9-4.4,10.1-7.1c2.9-2.4,5.9-4.9,8.9-7.3c1.4-1.1,1.4-1.1,2.9-2.3c0.9-0.7,1.8-1.4,2.7-2.1	c2.7-2.5,4.4-5.2,6.4-8.2c1.7-1.9,3.5-3.8,5.3-5.7c6.1-6.5,10.6-13.6,14.9-21.3c1.5-2.6,2.7-4,4.8-6c1-1.7,2-3.5,2.9-5.3	c1.1-1.7,1.1-1.7,2.5-3c3.8-4.2,5.4-10.3,6.6-15.7c-0.6-3.3-1.7-5.5-4-8c-0.7-0.5-1.4-0.9-2.1-1.4c-2.7-2.2-3-4.7-4-8	c-1.3-3.7-3.3-6.8-5.4-10.1c-2.7-4.4-4.8-9.1-7-13.8c-0.5-1.1-1-2.2-1.6-3.4c-1.6-3.4-3.1-6.8-4.7-10.3c-0.5-1.1-1-2.1-1.5-3.2	c-1-2.1-2-4.3-2.9-6.4c-0.5-1-0.9-2-1.4-3c-0.4-0.9-0.8-1.8-1.2-2.7c-1.3-2.6-2.7-5.1-4.3-7.6c-3.9-6.4-7.8-13.4-8.5-21	c-0.3-3.1-1-5.5-2.2-8.3c-2.1-5-3.9-10.2-5.6-15.4c-0.3-0.8-0.5-1.6-0.8-2.4c-1.5-4.8-2.3-8.8-1.9-13.9c1.1-2,1.1-2,3-3	c4.1,0.2,7.5,0.9,11,3c0.4-0.8,0.9-1.6,1.3-2.4C478.2,377.1,479.6,376.1,483.9,376z"/><path d="M504,246c1.8,1.2,1.8,1.2,3,3c0.2,2.7,0.2,2.7,0,5c0.6-0.5,1.1-1,1.7-1.5c3.4-2.2,6-1.7,9.9-1.2c3.5,1,5.2,2.8,7.4,5.7	c2,4.1,1.6,9,0.3,13.3c-0.9,2.3-1.9,4.5-3,6.8c-0.3,0.8-0.7,1.5-1,2.3c-1.8,3.8-3.7,7.3-5.9,10.8c-4.2,6.6-4.9,13.1-5.6,20.7	c-0.6,5.7-0.6,5.7-2,8.3c-1.1,1.9-1.1,1.9,0.2,4.3c0.5,0.9,1.1,1.7,1.6,2.6c0.8,1.3,0.8,1.3,1.6,2.6c3.4,4.3,7,5.6,12.3,6.4	c2.9,0.4,5.5,0.9,8.4,1.9c17.1,5.3,43.4,1.9,59.6-5.6c0.8-0.5,1.7-0.9,2.6-1.4c1.2-0.5,2.4-0.9,3.6-1.4c3.7-1.7,5.7-3.7,8.4-6.6	c1.7-1,3.3-2,5-3c4.3-4.1,8.2-8.5,12.1-12.9c2.3-2.5,3.6-4,6.9-5.1c2.6,0.8,2.6,0.8,5,2c1.5,3,1.1,5.7,1,9c0,1,0,2,0,3	c0.7-0.3,1.4-0.7,2.1-1c3.3-1.1,5.4-1.5,8.9-1c2.9,2.2,2.9,2.2,5,5c-0.2,5.8-4.1,8.7-8.1,12.5c-3.6,3.1-7.4,5.6-11.5,7.9	c-2.5,1.5-2.5,1.5-4.3,3.5c-4.9,4.9-11.3,8.4-17.1,12.1c-0.8,0.5-1.6,1-2.5,1.6c-12.5,7.1-29.9,9.7-44.2,9.4	c-4.3-0.1-8.1,0.3-12.3,1c-8.9,0.7-17.3-0.9-26-3c-0.7-0.2-1.4-0.3-2.2-0.5c-17.3-4.1-33.6-10.7-43.7-26.1c-1.1-1.8-2.1-3.6-3.1-5.4	c-0.5-0.9-0.5-0.9-1.1-1.9c-4.3-8.7-3.4-19.8-1.9-29.1c0.5-1.3,1-2.6,1.5-3.8c1.8-4.4,2.3-8.8,2.8-13.5c0.9-6.7,2.2-11.7,6.1-17.3	c2.4-3.6,3.7-7.6,5.2-11.7C493.4,248.2,498,245.4,504,246z"/><path d="M572,376c1.3,0.3,2.6,0.7,4,1c-0.3,1-0.7,2-1,3c-1-0.3-2-0.7-3-1C572,378,572,377,572,376z"/><path d="M448,625c0.7,0,1.3,0,2,0c-0.3,1-0.7,2-1,3c-0.7,0-1.3,0-2,0C447.3,627,447.7,626,448,625z"/></svg>