<svg xmlns="http://www.w3.org/2000/svg" xmlns:xlink="http://www.w3.org/1999/xlink" id="Livello_1" x="0" y="0" version="1.1" viewBox="0 0 1078 1078" xml:space="preserve" style="enable-background:new 0 0 1078 1078"><style type="text/css">.st0{fill:#009}.st1{fill:#fff}</style><metadata><sfw xmlns="http://ns.adobe.com/SaveForWeb/1.0/"><slices/><sliceSourceBounds width="1078" height="1078" x="0" y="0" bottomLeftOrigin="true"/></sfw></metadata><rect width="1078" height="1078" y="0" class="st0"/><path d="M952,751H850V465h102V751z M900.9,411.9c-31.2,0-56.9-25.7-56.9-56.9s25.7-56.9,56.9-56.9s56.9,25.7,56.9,56.9	C957.9,386.2,932.2,411.9,900.9,411.9z M791,752H689v-32h-1.4c-18,29-53.5,41.7-87.3,41.7c-85.6,0-145.9-71.6-145.9-154.4	c0-82.8,59.3-153.8,145-153.8c33.2,0,67.7,12.4,89.7,37.7V463h102L791,752L791,752z M626.2,542.5c-41.7,0-65.9,29.9-65.9,65.4	c0,36.6,24.2,64.8,65.9,64.8s65.9-28.2,65.9-64.8C692.1,572.3,667.9,542.5,626.2,542.5z M338.1,749L234.9,587H234v162H124V328h163.9	c83.1,0,146.2,39.8,146.2,129.7c0,58-32.4,108.3-92.1,118.9L474.3,749H338.1z M244.4,412H234v105h10.4c35.7,0,75.9-6.7,75.9-52.5	S280.1,412,244.4,412z" class="st1"/></svg>