<svg xmlns="http://www.w3.org/2000/svg" xmlns:svg="http://www.w3.org/2000/svg" xmlns:xlink="http://www.w3.org/1999/xlink" id="svg2" x="0" y="0" version="1.1" viewBox="0 0 4234.5 823" xml:space="preserve" style="enable-background:new 0 0 4234.5 823"><style type="text/css">.st0{fill:#0074ff}</style><metadata><sfw xmlns="http://ns.adobe.com/SaveForWeb/1.0/"><slices/><sliceSourceBounds width="4234.5" height="823" x="0" y="-1.3" bottomLeftOrigin="true"/></sfw></metadata><g><path d="M4222.8,174.7h-46.6c-3,0-6,0.7-8.7,2.1l-142,71.8c-3.4,1.7-5.5,5.2-5.5,9v87.9c0,7.1,7.5,11.8,13.9,8.6 l97.2-49.3v333.4c0,5.5,4.5,10,10,10h83.5c5.5,0,10-4.5,10-10V186.5C4234.5,180,4229.3,174.7,4222.8,174.7" class="st0"/><path d="M1934.9,281.1v142.1h311.2c40.4,0,72.7-32.1,72.7-71c0-39.1-32.3-71-72.7-71H1934.9z M1934.9,530.3v117.8 h-117.1V174.9h436.6c100.6,0,182.2,79.3,182.2,177.3c0,63.2-34,118.8-85.1,149.6l85.1,146.3h-128.3l-69.5-117.8H1934.9" class="st0"/><path d="M3328.2,281.1v142h299.7c40.3,0,72.6-32,72.6-70.9c0-39.2-32.2-71.1-72.6-71.1H3328.2z M3328.2,529.5v118.6 h-117.1V174.9h425c100.8,0,182.3,79.3,182.3,177.3c0,97.9-81.5,177.2-182.3,177.2H3328.2" class="st0"/><polygon points="2523.3 281.1 2523.3 174.9 3111.7 174.9 3111.7 281.1 2877 281.1 2877 648.1 2758.4 648.1 2758.4 281.1" class="st0"/><path d="M1399,705.3h-114.3h-175.4H525.2H349.8H235.4c-33.3,0-60.3,26.5-60.3,59c0,32.5,27,58.7,60.3,58.7h114.4h175.3 h584.1h175.4H1399c33.6,0,60.3-26.2,60.3-58.7C1459.3,731.8,1432.5,705.3,1399,705.3" class="st0"/><path d="M235.4,117.6h289.8h584.1H1399c33.6,0,60.3-26.2,60.3-58.8c0-32.5-26.7-58.9-60.3-58.9h-289.7H525.2H235.4 c-33.3,0-60.3,26.4-60.3,58.9C175.1,91.5,202.1,117.6,235.4,117.6" class="st0"/><path d="M60.3,294.2h1513.9c33.4,0,60.5-26.5,60.5-59c0-32.3-27.1-58.7-60.5-58.7H60.3C26.9,176.5,0,202.9,0,235.2 C0,267.7,26.9,294.2,60.3,294.2" class="st0"/><path d="M1574.2,353.5H60.4c-33.4,0-60.4,26.3-60.4,59c0,32.3,26.9,58.8,60.4,58.8h1513.9c33.4,0,60.5-26.5,60.5-58.8 C1634.7,379.8,1607.6,353.5,1574.2,353.5" class="st0"/><path d="M1574.2,529.3h-114.6v0H175.1v0H60.4C26.9,529.3,0,555.6,0,588.1c0,32.4,26.9,58.8,60.4,58.8h114.8v0.1h1284.5 v-0.1h114.6c33.4,0,60.5-26.3,60.5-58.8C1634.7,555.6,1607.6,529.3,1574.2,529.3" class="st0"/></g></svg>