<svg xmlns="http://www.w3.org/2000/svg" xmlns:xlink="http://www.w3.org/1999/xlink" width="114" height="48" version="1.1" viewBox="0 0 114 48"><title>sbs_black</title><desc>Created with Sketch.</desc><defs><linearGradient id="linearGradient-1" x1="121.955%" x2="0%" y1="132.642%" y2="0%"><stop offset="0%" stop-color="#FFF" stop-opacity="0"/><stop offset="100%" stop-color="#FFF"/></linearGradient><path id="path-2" d="M63.0692658,38.5160506 C61.9260759,39.0877975 60.361519,39.3663797 58.3461266,39.3663797 L47.0497215,39.3663797 L47.0497215,26.6111392 L58.4965063,26.6111392 C60.4818228,26.6336203 62.0539747,26.904 63.1667848,27.4307848 C65.1296203,28.3780253 66.1224304,30.070481 66.1224304,32.5373165 C66.1224304,35.500557 65.1071392,37.4934684 63.0692658,38.5160506 Z M47.0497215,9.0723038 L56.8116456,9.0723038 C58.9476456,9.0723038 60.7300253,9.29073418 62.1214177,9.74187342 C63.7157468,10.3886582 64.5356962,11.7347848 64.5356962,13.750481 C64.5356962,15.6006076 63.9110886,16.8641013 62.6931646,17.563443 C61.4819241,18.2852658 59.8875949,18.6388861 57.9548354,18.6388861 L47.0497215,18.6388861 L47.0497215,9.0723038 Z M80.2165063,44.1867342 C83.691038,46.7292152 88.4591392,48 94.5208101,48 C100.432101,48 105.027038,46.6538734 108.276456,43.9160506 C111.532861,41.1712405 113.172152,37.7343797 113.172152,33.5978734 C113.172152,29.566481 111.758278,26.4978228 108.922937,24.3548354 C107.088,22.9859241 104.433418,21.865519 100.905722,20.9705316 L92.8587342,18.9548354 C89.7299241,18.2026329 87.7145316,17.5561519 86.7742785,17.0372658 C85.2850633,16.2850633 84.5632405,15.1117975 84.5632405,13.5472405 C84.5632405,11.8553924 85.3078481,10.5092658 86.7970633,9.56111392 C88.2859747,8.61387342 90.2718987,8.14025316 92.7536203,8.14025316 C94.9944304,8.14025316 96.8825316,8.48597468 98.3939241,9.18531646 C100.657823,10.2306835 101.868759,12.0282532 102.048911,14.5175696 L111.585418,14.5175696 C111.412253,9.86248101 109.569722,6.29741772 106.042633,3.85306329 C102.515241,1.41660759 98.2435443,0.168 93.2573165,0.168 C87.2706835,0.168 82.7210127,1.53660759 79.6447595,4.25194937 C76.561519,6.96668354 75.027038,10.3813671 75.027038,14.4950886 C75.027038,19.0001013 76.7644557,22.3166582 80.2915443,24.4298734 C82.3522025,25.700962 85.7516962,26.8967089 90.4748354,28.0471899 L95.2654177,29.1903797 C98.0703797,29.8672405 100.183899,30.5595949 101.575291,31.2814177 C102.936608,32.0557975 103.636253,33.1236456 103.636253,34.5001519 C103.636253,36.8618734 102.297114,38.4862785 99.6650127,39.358481 C98.2435443,39.8026329 96.4310886,40.0280506 94.1972658,40.0280506 C90.4447595,40.0280506 87.7895696,39.2305823 86.2481013,37.6362532 C85.4056709,36.7640506 84.8342278,35.448 84.5632405,33.6504304 L75.6404051,33.6504304 C75.6473924,33.4550886 75.6589367,33.2618734 75.6589367,33.0634937 C75.6589367,30.3715443 75.0647089,28.0550886 73.868962,26.1596962 C72.6805063,24.2646076 70.9430886,22.8732152 68.6345316,21.9782278 C70.1237468,21.2032405 71.236557,20.353519 72.0112405,19.4062785 C73.372557,17.7363038 74.0718987,15.5252658 74.0718987,12.7804557 C74.0718987,10.1179747 73.3500759,7.8243038 71.9358987,5.90643038 C69.5747848,2.79250633 65.5734684,1.19848101 59.9176709,1.10035443 L37.5132152,1.10035443 L37.5132152,29.3659747 C36.8436456,27.340557 35.6418228,25.6721013 33.9034937,24.3548354 C32.060962,22.9859241 29.4060759,21.865519 25.8789873,20.9705316 L17.8316962,18.9548354 C14.7031899,18.2026329 12.6874937,17.5561519 11.7475443,17.0372658 C10.2583291,16.2850633 9.53650633,15.1117975 9.53650633,13.5472405 C9.53650633,11.8553924 10.2808101,10.5092658 11.7700253,9.56111392 C13.2589367,8.61387342 15.2521519,8.14025316 17.7338734,8.14025316 C19.9676962,8.14025316 21.8551899,8.48597468 23.3671899,9.18531646 C25.6307848,10.2306835 26.8490127,12.0282532 27.0221772,14.5175696 L36.5586835,14.5175696 C36.3852152,9.86248101 34.5502785,6.29741772 31.0231899,3.85306329 C27.4957975,1.41660759 23.2237975,0.168 18.2302785,0.168 C12.2439494,0.168 7.70156962,1.53660759 4.61772152,4.25194937 C1.54207595,6.96668354 0,10.3813671 0,14.4950886 C0,19.0001013 1.73741772,22.3166582 5.26450633,24.4298734 C7.32546835,25.700962 10.7322532,26.8967089 15.4477975,28.0471899 L20.2383797,29.1903797 C23.0509367,29.8672405 25.1571646,30.5595949 26.548557,31.2814177 C27.9171646,32.0557975 28.6089114,33.1236456 28.6089114,34.5001519 C28.6089114,36.8618734 27.2703797,38.4862785 24.6382785,39.358481 C23.2237975,39.8026329 21.4116456,40.0280506 19.1705316,40.0280506 C15.4250127,40.0280506 12.7628354,39.2305823 11.2286582,37.6362532 C10.3789367,36.7640506 9.80718987,35.448 9.53650633,33.6504304 L0,33.6504304 C0,38.1326582 1.71493671,41.6448608 5.18916456,44.1867342 C8.67159494,46.7292152 13.4396962,48 19.4934684,48 C25.4053671,48 30.0003038,46.6538734 33.2570127,43.9160506 C35.3431899,42.1534177 36.7622278,40.1033924 37.5132152,37.7677975 L37.5132152,47.3380253 L58.4737215,47.3380253 C60.835443,47.3380253 63.0164051,47.1353924 65.0321013,46.7140253 C67.0398987,46.292962 68.8073924,45.4957975 70.2966076,44.3222278 C71.6126582,43.3221266 72.7029873,42.1035949 73.5982785,40.6070886 C74.3881519,39.3265823 74.9450127,37.9449114 75.2813165,36.4675443 C75.8700759,39.6297722 77.5011646,42.2047595 80.2165063,44.1867342 Z"/></defs><g id="sbsbelgium.be-2" fill="none" fill-rule="evenodd" stroke="none" stroke-width="1" transform="translate(-150.000000, -50.000000)"><g id="Group-20"><g id="Group-3"><g id="Group-17" transform="translate(150.000000, 50.000000)"><g id="sbs_black"><use fill="#2BB0C8" xlink:href="#path-2"/><use fill="url(#linearGradient-1)" fill-opacity=".4" xlink:href="#path-2" style="mix-blend-mode:overlay"/></g></g></g></g></g></svg>