<svg xmlns="http://www.w3.org/2000/svg" xmlns:svg="http://www.w3.org/2000/svg" id="svg210940" version="1.1" viewBox="0 0 839.44 839.44"><defs id="defs210922"><radialGradient id="SVGID_b" cx="-311.64" cy=".334" r="419.72" gradientTransform="matrix(0.59949998,-0.3049724,0.39331917,0.77316805,369.83343,82.15597)" gradientUnits="userSpaceOnUse"><stop id="stop210912" offset="0" stop-color="#767676"/><stop id="stop210914" offset="1" stop-color="#6a6969" stop-opacity="0"/></radialGradient><radialGradient id="SVGID_a" cx="101.047" cy="449.874" r="419.72" gradientTransform="matrix(0.62828986,-0.47289222,0.60136543,0.79897411,354.93265,337.34126)" gradientUnits="userSpaceOnUse"><stop id="stop210917" offset="0" stop-color="#444242"/><stop id="stop210919" offset="1" stop-color="#444242" stop-opacity="0"/></radialGradient></defs><path id="path210924" fill="#1a1818" d="m 419.6151,1e-5 h -2.3938 C 380.5176,0.25184 344.9058,5.20454 310.9737,14.27048 275.2779,23.84011 241.4299,37.98466 210.1855,56.07459 h -0.084 c -31.9163,18.46768 -61.3128,41.00665 -87.1398,66.94535 l -0.084,0.41972 C 97.0927,149.46229 74.5833,178.42289 56.1895,210.32169 38.0476,241.8007 23.8532,275.79802 14.1944,311.47422 v 0.29381 C 4.9554,345.72337 0,382.23901 0,419.72001 v 0.50367 c 0,37.48099 5.0394,73.87072 14.2783,108.41377 9.6589,35.96992 23.9372,70.00916 42.2051,101.44626 v 0.084 c 18.4779,31.7728 41.0293,60.9434 66.8982,86.7142 25.869,25.8127 55.0976,48.2678 86.9299,66.6095 h 0.084 c 31.4123,18.1319 65.3864,32.3185 101.2081,41.8461 h 0.084 c 34.562,9.2339 70.8458,14.1026 108.2634,14.1026 h 0.672 c 37.5436,0 73.9113,-5.0366 108.5992,-14.3544 35.8638,-9.6536 69.8379,-23.9241 101.2082,-42.0979 h 0.084 c 31.7903,-18.4677 60.8929,-41.0067 86.7199,-66.8195 25.617,-25.9387 48.2944,-55.1512 66.7722,-87.0919 18.0579,-31.3111 31.9163,-65.18248 41.5752,-100.94262 v -0.12592 C 834.8205,493.46481 839.44,457.15903 839.44,419.72 v -0.50366 c 0,-37.481 -5.0394,-73.87072 -14.2784,-108.41368 C 815.5028,274.9166 801.2244,240.96125 782.8726,209.65014 764.3947,177.62551 741.7174,148.37102 715.7644,122.4743 689.8954,96.78743 660.7508,74.41636 629.0025,56.07459 597.5062,37.90072 563.4902,23.67221 527.5004,14.10259 493.2324,4.86875 456.9486,0 419.573,0 h -0.252 z" style="fill-rule:evenodd;stroke:none"/><path id="path210926" fill="url(#SVGID_b)" d="m 419.6151,1e-5 h -2.3938 C 380.5176,0.25184 344.9058,5.20454 310.9737,14.27048 275.2779,23.84011 241.4299,37.98466 210.1855,56.07459 h -0.084 c -31.9163,18.46768 -61.3128,41.00665 -87.1398,66.94535 l -0.084,0.41972 C 97.0927,149.46229 74.5833,178.42289 56.1895,210.32169 38.0476,241.8007 23.8532,275.79802 14.1944,311.47422 v 0.29381 C 4.9554,345.72337 0,382.23901 0,419.72001 v 0.50367 c 0,37.48099 5.0394,73.87072 14.2783,108.41377 9.6589,35.96992 23.9372,70.00916 42.2051,101.44626 v 0.084 c 18.4779,31.7728 41.0293,60.9434 66.8982,86.7142 25.869,25.8127 55.0976,48.2678 86.9299,66.6095 h 0.084 c 31.4123,18.1319 65.3864,32.3185 101.2081,41.8461 h 0.084 c 34.562,9.2339 70.8458,14.1026 108.2634,14.1026 h 0.672 c 37.5436,0 73.9113,-5.0366 108.5992,-14.3544 35.8638,-9.6536 69.8379,-23.9241 101.2082,-42.0979 h 0.084 c 31.7903,-18.4677 60.8929,-41.0067 86.7199,-66.8195 25.617,-25.9387 48.2944,-55.1512 66.7722,-87.0919 18.0579,-31.3111 31.9163,-65.18248 41.5752,-100.94262 v -0.12592 C 834.8205,493.46481 839.44,457.15903 839.44,419.72 v -0.50366 c 0,-37.481 -5.0394,-73.87072 -14.2784,-108.41368 C 815.5028,274.9166 801.2244,240.96125 782.8726,209.65014 764.3947,177.62551 741.7174,148.37102 715.7644,122.4743 689.8954,96.78743 660.7508,74.41636 629.0025,56.07459 597.5062,37.90072 563.4902,23.67221 527.5004,14.10259 493.2324,4.86875 456.9486,0 419.573,0 h -0.252 z" style="fill:url(#SVGID_b);fill-rule:evenodd;stroke:none"/><path id="path210928" fill="url(#SVGID_a)" d="m 419.6151,1e-5 h -2.3938 C 380.5176,0.25184 344.9058,5.20454 310.9737,14.27048 275.2779,23.84011 241.4299,37.98466 210.1855,56.07459 h -0.084 c -31.9163,18.46768 -61.3128,41.00665 -87.1398,66.94535 l -0.084,0.41972 C 97.0927,149.46229 74.5833,178.42289 56.1895,210.32169 38.0476,241.8007 23.8532,275.79802 14.1944,311.47422 v 0.29381 C 4.9554,345.72337 0,382.23901 0,419.72001 v 0.50367 c 0,37.48099 5.0394,73.87072 14.2783,108.41377 9.6589,35.96992 23.9372,70.00916 42.2051,101.44626 v 0.084 c 18.4779,31.7728 41.0293,60.9434 66.8982,86.7142 25.869,25.8127 55.0976,48.2678 86.9299,66.6095 h 0.084 c 31.4123,18.1319 65.3864,32.3185 101.2081,41.8461 h 0.084 c 34.562,9.2339 70.8458,14.1026 108.2634,14.1026 h 0.672 c 37.5436,0 73.9113,-5.0366 108.5992,-14.3544 35.8638,-9.6536 69.8379,-23.9241 101.2082,-42.0979 h 0.084 c 31.7903,-18.4677 60.8929,-41.0067 86.7199,-66.8195 25.617,-25.9387 48.2944,-55.1512 66.7722,-87.0919 18.0579,-31.3111 31.9163,-65.18248 41.5752,-100.94262 v -0.12592 C 834.8205,493.46481 839.44,457.15903 839.44,419.72 v -0.50366 c 0,-37.481 -5.0394,-73.87072 -14.2784,-108.41368 C 815.5028,274.9166 801.2244,240.96125 782.8726,209.65014 764.3947,177.62551 741.7174,148.37102 715.7644,122.4743 689.8954,96.78743 660.7508,74.41636 629.0025,56.07459 597.5062,37.90072 563.4902,23.67221 527.5004,14.10259 493.2324,4.86875 456.9486,0 419.573,0 h -0.252 z" style="fill:url(#SVGID_a);fill-rule:evenodd;stroke:none"/><g id="g210938" fill="#fff" style="stroke:none"><path id="path210932" d="m303.63707 150.60496v286.31836c0 61.22687 14.17929 89.0543 36.38281 114.42383 31.06831 35.77435 73.88863 49.23633 109.51367 49.23633 93.37137 0 149.88086-78.03917 149.88086-156.80079 0-80.25401-66.82716-152.14062-145.28515-152.14062-46.68537 0-74.45508 20.1582-74.45508 20.1582l-0.61914-161.1953zm148.2667 213.70738c42.87437 0 76.44308 35.81282 76.44308 81.12147 0 46.26209-35.43217 81.13089-76.73233 81.13089-45.89822 0-76.80176-40.53906-76.80176-81.86817 0-36.39616 28.70724-80.38419 77.09101-80.38419z" style="stroke:none"/><path id="path210934" d="m173.76172 294.50781c-62.07453 0-102.08234 27.36949-102.08234 86.45956 0 24.74814 10.66957 53.52617 26.7565 67.83173 13.11442 12.09826 21.16613 13.54971 35.28589 18.77105 14.86299 5.51846 26.26378 6.64857 40.68958 11.86988 5.68282 1.99515 15.21923 5.93678 20.02797 8.48376 4.37134 2.12249 19.91492 10.5329 19.91492 20.42369 0 17.8289-14.26839 21.49999-35.2513 21.49999-29.28869 0-53.88922-5.75589-79.24356-15.51934-1.74858-0.84889-23.72852-9.92968-23.72852-9.92968l-0.31641 80.16015s3.27588 1.05881 6.33594 2.03516c35.8459 12.05572 65.9533 13.28904 96.11618 13.28904 74.31467 0 118.16582-43.73937 118.16582-97.82037 0-36.71904-28.67449-70.26129-61.02324-82.91131-14.4258-6.36746-42.00221-13.24922-49.8707-15.37171-16.61157-5.09397-36.60486-9.03055-36.60486-21.42588 0-13.75373 13.11606-19.49584 42.84195-19.49584 26.22863-0.42459 55.16782 11.83959 55.16782 11.83959l17.93555 8.29882-1.05664-70.44726c5e-3 -3.48088-3.19085-4.49878-6.42579-5.51758 0 0-42.54313-12.52344-83.63476-12.52345z" style="stroke:none"/><path id="path210936" d="m633.67613 199.12059 0.041 97.41406-45.80664 0.3711v60.87304l46.36719-0.0684-0.59961 109.36719c-0.23926 43.57629-2.87171 82.3424 16.82226 104.13086 14.26519 15.33573 31.4237 26.11328 76.24024 26.11328 12.49139-0.80141 31.61462-7.96057 31.61462-7.96057l-1.19036-50.5838c-34.50767 3.57617-34.07708 4.01805-42.95322-5.15825-10.81783-11.06181-4.55887-92.7034-4.55887-92.7034l0.41205-83.1721 46.70508 0.27148-0.57032-61.40816-45.99218-0.2793-0.78321-97.20703z" style="stroke:none"/></g></svg>