<svg xmlns="http://www.w3.org/2000/svg" xmlns:svg="http://www.w3.org/2000/svg" id="svg3752" width="738.409" height="139.425" version="1.1" viewBox="0 0 195.371 36.889"><metadata id="metadata3749"/><g id="layer1" transform="translate(-8.6506762,-139.46005)"><g id="g10" transform="matrix(0.24906593,0,0,-0.24906593,8.6506762,176.3492)"><g id="g12" transform="scale(0.1)"><path style="fill:#176fc1;fill-opacity:1;fill-rule:nonzero;stroke:none" id="path14" d="m 7844.14,1352.88 c 0,70.84 -57.37,128.22 -128.21,128.22 H 128.188 C 57.4297,1481.1 0,1423.72 0,1352.88 V 128.18 C 0,57.3203 57.4297,-0.0117188 128.188,-0.0117188 H 7715.93 c 70.84,0 128.21,57.3320188 128.21,128.1917188 v 1224.7"/><path style="fill:#ed192e;fill-opacity:1;fill-rule:nonzero;stroke:none" id="path16" d="M 7715.96,1481.1 H 5623.47 V -0.0117188 h 2092.49 c 70.81,0 128.18,57.3320188 128.18,128.1917188 v 1224.68 c 0,70.86 -57.37,128.24 -128.18,128.24"/><path style="fill:#fff;fill-opacity:1;fill-rule:nonzero;stroke:none" id="path18" d="m 2427.22,1034.95 h -500.44 c -98.3,-0.1 -177.82,-79.696 -177.89,-177.934 V 402.629 h 0.04 l 0.03,-57.188 h 149.48 v 191.477 c 0,15.594 12.65,28.25 28.34,28.25 h 500.44 c 98.26,0 177.8,79.582 177.86,177.824 l 0.07,114.024 c -0.13,98.289 -79.59,177.834 -177.93,177.934 m 28.35,-291.958 c -0.02,-15.605 -12.65,-28.254 -28.35,-28.312 l -500.44,0.058 c -9.65,0 -19.08,-0.761 -28.34,-2.265 v 144.543 c 0,15.644 12.78,28.3 28.34,28.328 h 500.44 c 15.57,-0.028 28.33,-12.684 28.35,-28.328 V 742.992"/><path style="fill:#fff;fill-opacity:1;fill-rule:nonzero;stroke:none" id="path20" d="M 761.336,987.941 H 1263.2 c 15.69,-0.046 28.3,-12.8 28.38,-28.382 h 149.98 c -0.09,98.561 -79.86,178.281 -178.36,178.341 H 761.336 C 662.855,1137.84 583.008,1058.12 583.008,959.559 V 845.254 c 0,-98.524 79.801,-178.328 178.328,-178.356 l 501.864,0.028 c 15.69,0 28.3,-12.684 28.38,-28.262 V 524.262 c -0.08,-15.645 -12.81,-28.41 -28.38,-28.41 H 761.336 c -15.617,0 -28.356,12.765 -28.356,28.41 h -150 c 0.028,-98.461 79.829,-178.25 178.356,-178.34 H 1263.2 c 98.55,0.09 178.27,79.879 178.36,178.34 l -0.06,114.402 c 0,98.516 -79.88,178.207 -178.3,178.207 H 761.336 c -15.617,0 -28.356,12.672 -28.356,28.383 l -0.046,114.305 c 0.046,15.582 12.785,28.336 28.402,28.382"/><path style="fill:#fff;fill-opacity:1;fill-rule:nonzero;stroke:none" id="path22" d="m 4813.28,565.168 c 98.22,0.051 177.83,79.504 177.88,177.824 l 0.02,114.024 c -0.07,98.261 -79.55,177.844 -177.89,177.874 l -500.41,0.06 c -98.37,-0.09 -177.85,-79.673 -177.91,-177.934 V 345.789 h 149.57 v 56.922 h 0.03 v 135.457 c 0.64,15.066 13.02,27 28.31,27.051 l 272.25,-0.051 219.6,-219.418 h 212.62 l -220.71,219.418 z m -500.4,149.59 c -9.63,0 -19.13,-0.781 -28.34,-2.274 v 144.532 c 0.03,15.644 12.71,28.328 28.34,28.328 h 500.41 c 15.6,0 28.34,-12.707 28.34,-28.328 V 742.992 c 0,-15.586 -12.72,-28.234 -28.34,-28.332 l -500.41,0.098"/><path style="fill:#fff;fill-opacity:1;fill-rule:nonzero;stroke:none" id="path24" d="m 3598.92,1034.93 h -508.55 c -96.86,-0.08 -175.18,-78.489 -175.26,-175.321 V 521.008 c 0.08,-96.809 78.4,-175.188 175.26,-175.188 h 508.55 c 96.82,0 175.17,78.379 175.26,175.188 l -0.03,338.601 h 0.03 c -0.09,96.832 -78.39,175.241 -175.26,175.321 m 24.29,-511.657 c 0,-15.156 -12.41,-27.527 -27.54,-27.546 h -502.03 c -15.21,0.019 -27.56,12.39 -27.56,27.546 v 334.094 c 0,15.231 12.35,27.586 27.56,27.586 h 502.03 c 15.11,0 27.54,-12.355 27.54,-27.586 V 523.273"/><path style="fill:#fff;fill-opacity:1;fill-rule:nonzero;stroke:none" id="path26" d="M 7204.76,1137.23 6846.3,566.066 6488.21,1137.23 h -185 l 478.22,-791.48 h 130.11 l 480.65,791.48 h -187.43"/><path style="fill:#fff;fill-opacity:1;fill-rule:nonzero;stroke:none" id="path28" d="m 5189.87,988.426 h 351.42 V 345.871 h 149.6 v 642.555 h 351.4 V 1137.41 H 5189.87 V 988.426"/></g></g></g></svg>