<?xml version="1.0" encoding="utf-8"?>
<!-- Generator: Adobe Illustrator 23.0.1, SVG Export Plug-In . SVG Version: 6.00 Build 0)  -->
<svg version="1.1" id="Шар_1" xmlns="http://www.w3.org/2000/svg" xmlns:xlink="http://www.w3.org/1999/xlink" x="0px" y="0px"
	 viewBox="0 0 1237.232 383.4" enable-background="new 0 0 1237.232 383.4" xml:space="preserve">
<g>
	<path fill="#41CFFF" d="M191.7,191.7v191.7C86.457,383.4,0,296.943,0,191.7S86.457,0,191.7,0V191.7z"/>
	<g>
		<path d="M346.977,163.52c-32.206,0-55.018-24.154-55.018-59.044s23.004-59.235,55.21-59.235c25.88,0,44.858,15.144,50.992,40.257
			l-23.196,1.917c-4.026-11.885-13.994-19.553-27.413-19.553c-17.828,0-30.289,14.378-30.289,36.423s12.461,36.423,30.289,36.423
			c13.227,0,23.387-7.476,27.413-19.553l23.196,1.917C392.026,148.376,373.048,163.52,346.977,163.52L346.977,163.52z"/>
		<path d="M437.843,163.328c-6.518,0-13.036-1.534-18.595-4.984l3.834-21.087c5.176,3.067,10.352,4.792,14.569,4.792
			c5.751,0,10.735-3.259,14.186-9.393l-46.2-85.498h26.455l30.864,60.769l26.838-60.769h25.496l-42.749,91.633
			C465.256,154.51,452.987,163.328,437.843,163.328L437.843,163.328z"/>
		<path d="M576.825,163.52c-32.206,0-55.018-24.154-55.018-59.044s23.004-59.235,55.21-59.235c25.879,0,44.858,15.144,50.992,40.257
			l-23.196,1.917c-3.834-11.885-13.994-19.553-27.413-19.553c-17.828,0-30.289,14.378-30.289,36.423s12.46,36.423,30.289,36.423
			c13.227,0,23.387-7.476,27.413-19.553l23.196,1.917C621.683,148.376,602.705,163.52,576.825,163.52L576.825,163.52z"/>
		<path d="M646.604,47.158h96.809v114.637H719.45v-94.7h-48.883v94.7h-23.963V47.158L646.604,47.158z"/>
		<path d="M766.417,47.158h23.963v114.637h-23.963V47.158z"/>
		<path d="M910.192,47.158v114.637h-23.963v-94.7h-37.19V78.98c0,61.536-7.285,84.348-27.221,84.348
			c-4.409,0-11.119-1.15-16.678-2.876l1.725-20.704c2.492,0.767,5.559,1.15,7.093,1.15c9.585,0,12.652-16.103,12.652-69.012V47.158
			H910.192L910.192,47.158z"/>
		<path d="M933.004,47.158h23.963v42.174h23.196c22.812,0,38.915,15.144,38.915,36.231s-16.294,36.423-38.723,36.423h-47.542
			L933.004,47.158L933.004,47.158z M956.966,109.269v32.589h19.745c10.352,0,17.253-6.71,17.253-16.295s-7.093-16.295-17.445-16.295
			H956.966L956.966,109.269z"/>
		<path d="M1037.289,47.158h23.962V93.55h49.65V47.158h23.963v114.637h-23.963v-48.117h-49.65v48.117h-23.962V47.158z"/>
		<path d="M1157.676,47.158h78.789v19.937h-54.826V93.55h49.267v19.937h-49.267v28.372h55.593v19.937h-79.555V47.158z"/>
		<path d="M361.93,286.016c-7.668,3.067-16.678,4.793-26.263,4.793c-26.838,0-43.324-14.186-43.324-36.998v-37.765h23.962v33.164
			c0,13.227,9.01,20.895,25.496,20.895c7.285,0,14.186-1.534,19.937-4.026v-50.034H385.7v114.637h-23.963v-44.666H361.93z"/>
		<path d="M408.704,215.854h78.789v19.937h-54.826v26.455h49.267v19.937h-49.267v28.372h55.593v19.937h-79.555L408.704,215.854
			L408.704,215.854z"/>
		<path d="M507.813,215.854h46.391c22.812,0,38.915,15.144,38.915,36.231s-16.294,36.423-38.723,36.423h-22.812v41.982h-23.963
			V215.854H507.813z M531.776,235.791v32.589h18.978c10.352,0,17.253-6.71,17.253-16.295c0-9.585-7.093-16.294-17.253-16.294
			H531.776L531.776,235.791z"/>
		<path d="M611.331,215.854h23.962v46.391h49.65v-46.391h23.962v114.637h-23.962v-48.117h-49.65v48.117h-23.962V215.854z"/>
		<path d="M731.527,215.854h23.962v114.637h-23.962V215.854z"/>
		<path d="M778.494,215.854h75.146v19.937h-51.184v94.7h-23.963V215.854z"/>
		<path d="M869.935,215.854h23.963v114.637h-23.963V215.854z"/>
		<path d="M916.709,215.854h46.966c21.279,0,36.423,13.036,36.423,31.055c0,9.968-4.409,18.403-11.885,23.962
			c10.735,5.368,17.445,15.336,17.445,27.413c0,18.787-16.294,32.206-38.723,32.206h-50.417L916.709,215.854L916.709,215.854z
			 M940.672,235.791v27.03h18.787c9.393,0,15.336-5.559,15.336-13.611c0-8.051-6.326-13.419-15.719-13.419H940.672z
			 M940.672,281.607v28.947h22.812c10.352,0,17.253-5.943,17.253-14.569c0-8.627-7.093-14.378-17.253-14.378H940.672
			L940.672,281.607z"/>
	</g>
</g>
</svg>
